<svg id="svg" version="1.1" xmlns="http://www.w3.org/2000/svg" xmlns:xlink="http://www.w3.org/1999/xlink" width="400" height="380.3921568627451" viewBox="0, 0, 400,380.3921568627451"><g id="svgg"><path id="path0" d="M41.865 7.255 C 40.295 7.627,37.812 8.131,36.346 8.374 C 31.646 9.153,29.920 9.773,29.006 11.009 C 28.501 11.692,27.536 12.336,26.598 12.617 C 25.481 12.952,24.758 13.501,24.074 14.536 C 23.546 15.333,22.962 15.985,22.776 15.985 C 21.997 15.985,16.838 21.593,16.403 22.913 C 16.151 23.676,15.360 25.067,14.645 26.003 C 13.223 27.865,12.356 30.642,11.058 37.488 L 10.265 41.675 10.365 208.069 C 10.442 335.274,10.572 374.568,10.915 374.911 C 12.007 376.003,14.171 375.538,14.969 374.040 C 15.395 373.241,16.270 372.369,16.983 372.030 C 17.727 371.677,18.505 370.882,18.879 370.093 C 19.265 369.280,20.071 368.470,20.930 368.032 C 21.781 367.598,22.541 366.838,22.835 366.127 C 23.125 365.427,23.887 364.659,24.705 364.242 C 25.515 363.828,26.342 362.998,26.709 362.228 C 27.087 361.434,27.866 360.666,28.688 360.276 C 29.533 359.875,30.287 359.119,30.691 358.266 C 31.103 357.399,31.800 356.707,32.600 356.373 C 33.399 356.039,34.132 355.312,34.607 354.381 C 35.065 353.485,35.814 352.726,36.537 352.426 C 37.247 352.132,38.007 351.372,38.441 350.521 C 38.879 349.662,39.689 348.856,40.502 348.470 C 41.331 348.077,42.088 347.315,42.489 346.468 C 42.904 345.594,43.598 344.909,44.415 344.568 C 45.228 344.228,45.928 343.540,46.341 342.674 C 46.731 341.856,47.538 341.034,48.369 340.611 C 49.186 340.194,49.948 339.425,50.238 338.725 C 50.537 338.002,51.296 337.253,52.193 336.795 C 53.123 336.321,53.851 335.588,54.185 334.788 C 54.519 333.988,55.211 333.291,56.078 332.879 C 56.925 332.478,57.687 331.721,58.080 330.892 C 58.466 330.079,59.272 329.269,60.131 328.831 C 60.982 328.397,61.742 327.637,62.036 326.927 C 62.326 326.226,63.088 325.458,63.905 325.041 C 64.747 324.612,65.543 323.795,65.948 322.947 C 66.381 322.039,67.066 321.366,67.920 321.009 C 68.765 320.656,69.457 319.982,69.871 319.109 C 70.264 318.281,71.064 317.474,71.929 317.032 C 72.780 316.599,73.540 315.839,73.834 315.128 C 74.124 314.428,74.886 313.660,75.704 313.243 C 76.514 312.829,77.341 311.999,77.708 311.229 C 78.086 310.435,78.865 309.667,79.686 309.277 C 80.431 308.924,81.617 308.023,82.323 307.275 C 84.292 305.187,78.879 305.268,219.220 305.240 C 355.336 305.213,358.220 305.181,360.038 303.700 C 361.301 302.672,364.812 301.047,365.772 301.047 C 366.192 301.047,367.286 300.276,368.201 299.334 C 369.116 298.392,370.044 297.621,370.263 297.621 C 370.888 297.621,376.272 292.165,376.569 291.230 C 376.715 290.768,376.972 290.390,377.138 290.390 C 377.803 290.390,379.369 288.406,379.595 287.279 C 379.726 286.621,380.459 284.783,381.222 283.196 C 381.986 281.608,382.839 279.452,383.118 278.404 C 383.785 275.899,383.891 37.256,383.225 35.515 C 383.000 34.926,382.642 33.501,382.430 32.350 C 382.217 31.199,381.642 29.486,381.151 28.544 C 380.661 27.602,380.053 26.267,379.800 25.576 C 379.547 24.886,378.842 23.858,378.233 23.293 C 377.624 22.727,376.459 21.275,375.644 20.065 C 374.772 18.770,373.347 17.316,372.180 16.531 C 371.090 15.797,369.518 14.517,368.687 13.686 C 367.856 12.855,366.512 11.802,365.700 11.346 C 364.889 10.890,364.225 10.397,364.225 10.252 C 364.225 9.857,362.434 9.262,359.657 8.734 C 358.297 8.476,356.413 7.903,355.471 7.462 L 353.758 6.660 199.239 6.619 C 52.368 6.580,44.578 6.612,41.865 7.255 M348.344 42.344 C 350.711 43.895,350.539 34.551,350.431 155.934 C 350.321 280.067,350.598 268.292,347.736 270.385 L 346.662 271.170 207.489 271.363 C 130.944 271.470,68.267 271.598,68.207 271.649 C 68.146 271.700,67.363 272.469,66.467 273.359 C 64.473 275.336,57.906 281.405,56.068 282.969 C 55.329 283.597,53.930 284.814,52.957 285.675 C 49.919 288.363,46.979 289.001,45.444 287.305 C 44.735 286.522,44.717 283.891,44.622 165.791 L 44.524 45.077 45.608 43.778 C 46.204 43.064,47.276 42.268,47.989 42.009 C 50.369 41.145,347.019 41.476,348.344 42.344 " stroke="none" fill="#f6f6f6" fill-rule="evenodd"></path><path id="path1" d="M39.484 4.186 C 38.060 4.369,36.765 4.833,35.784 5.513 C 34.944 6.095,33.168 6.790,31.777 7.082 C 28.956 7.673,27.086 8.523,26.765 9.361 C 26.645 9.673,25.841 10.288,24.977 10.729 C 21.988 12.254,15.931 18.022,14.663 20.552 C 14.295 21.284,13.589 22.319,13.093 22.850 C 12.597 23.381,11.742 24.922,11.192 26.274 C 10.643 27.627,9.764 29.581,9.239 30.617 C 7.149 34.741,7.238 26.682,7.235 210.752 C 7.232 361.467,7.295 380.590,7.802 380.590 C 8.309 380.590,8.373 361.415,8.373 210.303 C 8.373 90.779,8.495 39.130,8.783 37.040 C 9.265 33.537,12.056 26.135,13.852 23.597 C 14.519 22.655,15.310 21.395,15.610 20.798 C 16.285 19.455,23.750 12.323,25.309 11.531 C 25.937 11.213,26.977 10.453,27.621 9.843 C 28.464 9.044,29.765 8.474,32.287 7.799 C 34.209 7.284,36.172 6.608,36.647 6.297 C 39.412 4.486,34.186 4.538,200.000 4.652 L 354.900 4.757 356.743 5.841 C 357.757 6.436,359.947 7.249,361.610 7.646 C 365.220 8.508,366.462 9.111,368.550 11.014 C 369.415 11.803,371.370 13.405,372.892 14.574 C 377.468 18.087,383.714 27.137,384.208 30.970 C 384.346 32.043,384.704 33.896,385.003 35.087 C 385.470 36.946,385.533 54.261,385.447 157.066 L 385.347 276.879 384.288 280.644 C 383.705 282.715,382.914 284.856,382.530 285.402 C 382.145 285.947,381.443 287.165,380.970 288.107 C 379.710 290.610,374.171 296.851,371.694 298.557 C 370.516 299.368,369.553 300.166,369.553 300.331 C 369.553 300.496,368.311 301.245,366.794 301.996 C 365.276 302.746,363.482 303.761,362.808 304.251 C 359.350 306.765,360.666 306.743,217.650 306.749 C 106.697 306.755,87.408 306.834,86.109 307.293 C 83.049 308.372,79.899 311.349,47.341 343.921 C 29.107 362.164,13.650 377.369,12.993 377.708 C 11.398 378.533,11.225 380.590,12.750 380.590 C 13.537 380.590,13.701 380.407,13.701 379.530 C 13.701 378.753,14.010 378.288,14.860 377.786 C 15.498 377.409,16.394 376.529,16.853 375.830 C 17.311 375.131,18.166 374.275,18.753 373.929 C 19.340 373.582,20.260 372.632,20.799 371.818 C 21.338 371.004,22.112 370.233,22.518 370.104 C 22.925 369.974,23.752 369.187,24.355 368.355 C 24.958 367.522,26.105 366.367,26.903 365.787 C 27.701 365.208,28.581 364.306,28.860 363.782 C 29.138 363.259,29.873 362.531,30.494 362.164 C 31.115 361.797,32.001 360.919,32.463 360.212 C 32.924 359.505,33.716 358.706,34.222 358.436 C 34.729 358.166,35.617 357.292,36.196 356.494 C 36.776 355.695,37.931 354.549,38.764 353.946 C 39.597 353.342,40.384 352.516,40.513 352.109 C 40.642 351.702,41.413 350.929,42.228 350.390 C 43.042 349.851,44.001 348.913,44.360 348.306 C 44.719 347.698,45.510 346.908,46.117 346.549 C 46.725 346.190,47.641 345.263,48.153 344.489 C 48.665 343.716,49.594 342.781,50.218 342.413 C 50.842 342.044,51.654 341.232,52.023 340.608 C 52.391 339.984,53.326 339.055,54.099 338.543 C 54.873 338.031,55.800 337.115,56.159 336.508 C 56.517 335.900,57.308 335.109,57.916 334.750 C 58.523 334.391,59.448 333.452,59.970 332.663 C 60.492 331.874,61.363 330.991,61.905 330.701 C 62.448 330.410,63.270 329.616,63.733 328.935 C 64.196 328.254,65.273 327.190,66.127 326.571 C 66.982 325.953,67.786 325.114,67.915 324.707 C 68.044 324.300,68.808 323.531,69.613 322.999 C 70.418 322.466,71.428 321.462,71.858 320.768 C 72.288 320.073,73.153 319.203,73.780 318.834 C 74.407 318.465,75.264 317.609,75.683 316.931 C 76.103 316.254,76.966 315.394,77.601 315.020 C 78.236 314.646,79.057 313.828,79.427 313.203 C 80.042 312.162,82.705 310.340,86.579 308.311 L 88.095 307.517 218.643 307.516 C 367.294 307.515,360.734 307.653,364.377 304.454 C 365.083 303.834,366.408 303.063,367.320 302.741 C 368.233 302.419,369.494 301.683,370.122 301.104 C 370.751 300.525,372.250 299.313,373.454 298.410 C 374.657 297.507,375.648 296.660,375.656 296.528 C 375.664 296.397,376.793 295.090,378.166 293.625 C 379.538 292.160,381.011 290.276,381.439 289.439 C 381.867 288.601,382.525 287.522,382.901 287.040 C 383.867 285.803,385.414 280.908,386.099 276.924 C 386.972 271.838,386.982 38.116,386.108 34.763 C 385.794 33.557,385.536 31.965,385.534 31.224 C 385.528 29.079,383.168 24.686,378.992 19.045 C 377.006 16.362,373.435 13.043,370.759 11.392 C 370.200 11.047,369.401 10.380,368.982 9.909 C 367.881 8.671,365.922 7.770,362.351 6.858 C 360.623 6.417,358.510 5.593,357.654 5.026 L 356.097 3.996 198.886 3.950 C 112.420 3.925,40.689 4.031,39.484 4.186 M48.049 43.762 L 46.813 44.518 46.813 164.527 C 46.813 259.978,46.910 284.652,47.288 285.103 C 48.599 286.666,48.971 286.694,50.496 285.346 C 51.296 284.639,52.550 283.660,53.283 283.171 C 54.015 282.682,55.128 281.724,55.756 281.041 C 58.573 277.980,66.444 271.217,68.058 270.471 L 69.838 269.648 207.489 269.458 L 345.139 269.267 346.214 268.479 C 348.847 266.548,348.619 277.268,348.620 155.062 L 348.620 45.042 347.638 44.120 L 346.656 43.197 197.971 43.102 C 50.240 43.007,49.278 43.012,48.049 43.762 M345.766 44.285 L 347.288 44.744 347.392 154.532 C 347.449 214.915,347.413 264.665,347.312 265.086 C 347.211 265.508,346.214 266.407,345.097 267.084 L 343.065 268.316 207.925 268.316 C 59.179 268.316,69.421 268.154,65.827 270.567 C 64.401 271.525,59.345 276.157,54.990 280.497 C 53.941 281.542,52.864 282.398,52.597 282.398 C 52.330 282.398,51.397 283.084,50.525 283.922 C 47.492 286.836,47.776 298.642,47.663 164.923 C 47.583 70.879,47.661 45.453,48.030 45.008 C 48.288 44.698,48.847 44.303,49.273 44.130 C 50.601 43.592,343.974 43.745,345.766 44.285 " stroke="none" fill="#646464" fill-rule="evenodd"></path><path id="path2" d="M38.381 3.030 C 35.697 3.306,34.078 4.080,33.701 5.270 C 33.529 5.810,32.964 6.060,31.483 6.251 C 28.098 6.687,26.752 7.196,25.600 8.473 C 24.989 9.151,23.490 10.219,22.269 10.847 C 21.048 11.475,19.778 12.452,19.447 13.017 C 19.116 13.583,18.145 14.489,17.288 15.031 C 16.432 15.572,15.464 16.565,15.137 17.237 C 14.811 17.909,13.691 19.513,12.649 20.801 C 11.533 22.182,10.649 23.709,10.497 24.520 C 10.355 25.277,9.739 26.465,9.129 27.160 C 7.609 28.891,7.239 30.028,6.754 34.443 C 6.021 41.123,5.927 380.590,6.658 380.590 C 7.168 380.590,7.232 361.738,7.235 210.752 C 7.238 26.682,7.149 34.741,9.239 30.617 C 9.764 29.581,10.643 27.627,11.192 26.274 C 11.742 24.922,12.597 23.381,13.093 22.850 C 13.589 22.319,14.295 21.284,14.663 20.552 C 15.931 18.022,21.988 12.254,24.977 10.729 C 25.841 10.288,26.645 9.673,26.765 9.361 C 27.086 8.523,28.956 7.673,31.777 7.082 C 33.155 6.793,34.943 6.095,35.766 5.525 C 38.314 3.759,35.840 3.784,199.647 3.892 L 356.097 3.996 357.654 5.026 C 358.510 5.593,360.623 6.417,362.351 6.858 C 365.922 7.770,367.881 8.671,368.982 9.909 C 369.401 10.380,370.200 11.047,370.759 11.392 C 373.435 13.043,377.006 16.362,378.992 19.045 C 383.168 24.686,385.528 29.079,385.534 31.224 C 385.536 31.965,385.794 33.557,386.108 34.763 C 386.982 38.116,386.972 271.838,386.099 276.924 C 385.414 280.908,383.867 285.803,382.901 287.040 C 382.525 287.522,381.867 288.601,381.439 289.439 C 381.011 290.276,379.538 292.160,378.166 293.625 C 376.793 295.090,375.664 296.397,375.656 296.528 C 375.648 296.660,374.657 297.507,373.454 298.410 C 372.250 299.313,370.751 300.525,370.122 301.104 C 369.494 301.683,368.233 302.419,367.320 302.741 C 366.408 303.063,365.083 303.834,364.377 304.454 C 360.734 307.653,367.294 307.515,218.643 307.516 L 88.095 307.517 86.579 308.311 C 82.705 310.340,80.042 312.162,79.427 313.203 C 79.057 313.828,78.236 314.646,77.601 315.020 C 76.966 315.394,76.103 316.254,75.683 316.931 C 75.264 317.609,74.407 318.465,73.780 318.834 C 73.153 319.203,72.288 320.073,71.858 320.768 C 71.428 321.462,70.418 322.466,69.613 322.999 C 68.808 323.531,68.044 324.300,67.915 324.707 C 67.786 325.114,66.982 325.953,66.127 326.571 C 65.273 327.190,64.196 328.254,63.733 328.935 C 63.270 329.616,62.448 330.410,61.905 330.701 C 61.363 330.991,60.492 331.874,59.970 332.663 C 59.448 333.452,58.523 334.391,57.916 334.750 C 57.308 335.109,56.517 335.900,56.159 336.508 C 55.800 337.115,54.873 338.031,54.099 338.543 C 53.326 339.055,52.391 339.984,52.023 340.608 C 51.654 341.232,50.842 342.044,50.218 342.413 C 49.594 342.781,48.665 343.716,48.153 344.489 C 47.641 345.263,46.725 346.190,46.117 346.549 C 45.510 346.908,44.719 347.698,44.360 348.306 C 44.001 348.913,43.042 349.851,42.228 350.390 C 41.413 350.929,40.642 351.702,40.513 352.109 C 40.384 352.516,39.597 353.342,38.764 353.946 C 37.931 354.549,36.776 355.695,36.196 356.494 C 35.617 357.292,34.729 358.166,34.222 358.436 C 33.716 358.706,32.924 359.505,32.463 360.212 C 32.001 360.919,31.115 361.797,30.494 362.164 C 29.873 362.531,29.138 363.259,28.860 363.782 C 28.581 364.306,27.701 365.208,26.903 365.787 C 26.105 366.367,24.958 367.522,24.355 368.355 C 23.752 369.187,22.925 369.974,22.518 370.104 C 22.112 370.233,21.338 371.004,20.799 371.818 C 20.260 372.632,19.340 373.582,18.753 373.929 C 18.166 374.275,17.311 375.131,16.853 375.830 C 16.394 376.529,15.498 377.409,14.860 377.786 C 13.195 378.769,13.184 380.590,14.843 380.590 C 15.810 380.590,15.985 380.443,15.985 379.631 C 15.985 377.878,83.059 311.179,85.481 310.523 C 87.006 310.110,111.230 309.981,218.459 309.814 L 349.572 309.610 351.284 308.748 C 352.587 308.093,354.137 307.792,357.755 307.492 C 363.677 307.000,364.732 306.678,365.679 305.072 C 366.239 304.124,366.783 303.744,367.875 303.539 C 369.976 303.145,372.184 301.916,372.657 300.877 C 372.883 300.382,373.887 299.531,374.890 298.985 C 376.124 298.314,376.841 297.625,377.110 296.854 C 377.337 296.202,378.091 295.370,378.874 294.908 C 379.627 294.465,380.561 293.475,380.952 292.710 C 381.342 291.945,382.343 290.494,383.176 289.486 C 384.317 288.105,384.851 286.980,385.339 284.930 C 385.695 283.433,386.390 281.608,386.884 280.875 C 388.604 278.324,388.563 281.310,388.573 156.072 C 388.583 24.963,388.691 31.562,386.487 28.315 C 385.993 27.586,385.304 26.134,384.957 25.088 C 384.571 23.928,383.905 22.876,383.247 22.390 C 382.654 21.951,382.058 21.144,381.921 20.597 C 381.348 18.302,374.740 11.482,372.118 10.481 C 371.132 10.104,370.253 9.433,369.868 8.763 C 369.273 7.726,365.429 6.089,363.588 6.089 C 363.282 6.089,362.487 5.691,361.820 5.205 C 358.268 2.610,375.253 2.859,199.049 2.812 C 112.074 2.789,39.774 2.887,38.381 3.030 M49.273 44.130 C 48.847 44.303,48.288 44.698,48.030 45.008 C 47.661 45.453,47.583 70.879,47.663 164.923 C 47.776 298.642,47.492 286.836,50.525 283.922 C 51.397 283.084,52.330 282.398,52.597 282.398 C 52.864 282.398,53.941 281.542,54.990 280.497 C 59.345 276.157,64.401 271.525,65.827 270.567 C 69.421 268.154,59.179 268.316,207.925 268.316 L 343.065 268.316 345.097 267.084 C 346.214 266.407,347.211 265.508,347.312 265.086 C 347.413 264.665,347.449 214.915,347.392 154.532 L 347.288 44.744 345.766 44.285 C 343.974 43.745,50.601 43.592,49.273 44.130 M344.339 44.769 L 345.195 44.998 345.195 154.917 L 345.195 264.835 344.192 265.624 L 343.189 266.413 207.085 266.415 C 66.736 266.417,68.950 266.392,67.517 267.979 C 67.119 268.419,65.812 269.276,64.612 269.882 C 63.133 270.629,62.358 271.272,62.206 271.879 C 62.077 272.392,61.336 273.136,60.470 273.623 C 59.639 274.090,58.549 275.122,58.048 275.916 C 57.530 276.736,56.640 277.532,55.985 277.760 C 55.221 278.027,54.605 278.649,54.152 279.614 C 53.491 281.022,53.405 281.069,51.283 281.180 L 49.096 281.294 49.096 163.126 L 49.096 44.958 50.333 44.804 C 52.352 44.554,343.405 44.519,344.339 44.769 " stroke="none" fill="#444444" fill-rule="evenodd"></path><path id="path3" d="M0.000 190.295 L 0.000 380.590 3.043 380.590 L 6.085 380.590 6.211 209.420 C 6.351 18.608,6.160 30.542,9.129 27.160 C 9.739 26.465,10.355 25.277,10.497 24.520 C 10.649 23.709,11.533 22.182,12.649 20.801 C 13.691 19.513,14.811 17.909,15.137 17.237 C 15.464 16.565,16.432 15.572,17.288 15.031 C 18.145 14.489,19.116 13.583,19.447 13.017 C 19.778 12.452,21.048 11.475,22.269 10.847 C 23.490 10.219,24.989 9.151,25.600 8.473 C 26.749 7.199,28.100 6.687,31.453 6.255 C 33.027 6.052,33.492 5.821,33.832 5.075 C 34.933 2.659,20.580 2.854,196.955 2.854 C 374.952 2.854,358.300 2.617,361.820 5.201 C 362.487 5.689,363.282 6.089,363.588 6.089 C 365.429 6.089,369.273 7.726,369.868 8.763 C 370.253 9.433,371.132 10.104,372.118 10.481 C 374.740 11.482,381.348 18.302,381.921 20.597 C 382.058 21.144,382.654 21.951,383.247 22.390 C 383.905 22.876,384.571 23.928,384.957 25.088 C 385.304 26.134,385.993 27.586,386.487 28.315 C 388.691 31.562,388.583 24.963,388.573 156.072 C 388.563 281.310,388.604 278.324,386.884 280.875 C 386.390 281.608,385.695 283.433,385.339 284.930 C 384.851 286.980,384.317 288.105,383.176 289.486 C 382.343 290.494,381.342 291.945,380.952 292.710 C 380.561 293.475,379.627 294.465,378.874 294.908 C 378.091 295.370,377.337 296.202,377.110 296.854 C 376.841 297.625,376.124 298.314,374.890 298.985 C 373.887 299.531,372.883 300.382,372.657 300.877 C 372.184 301.916,369.976 303.145,367.875 303.539 C 366.783 303.744,366.239 304.124,365.679 305.072 C 364.732 306.678,363.677 307.000,357.755 307.492 C 354.137 307.792,352.587 308.093,351.284 308.748 L 349.572 309.610 218.459 309.814 C 111.230 309.981,87.006 310.110,85.481 310.523 C 83.059 311.179,15.985 377.878,15.985 379.631 L 15.985 380.590 207.992 380.590 L 400.000 380.590 400.000 190.295 L 400.000 0.000 200.000 0.000 L 0.000 0.000 0.000 190.295 M50.333 44.804 L 49.096 44.958 49.096 163.126 L 49.096 281.294 51.283 281.180 C 53.405 281.069,53.491 281.022,54.152 279.614 C 54.605 278.649,55.221 278.027,55.985 277.760 C 56.640 277.532,57.530 276.736,58.048 275.916 C 58.549 275.122,59.639 274.090,60.470 273.623 C 61.336 273.136,62.077 272.392,62.206 271.879 C 62.358 271.272,63.133 270.629,64.612 269.882 C 65.812 269.276,67.119 268.419,67.517 267.979 C 68.950 266.392,66.736 266.417,207.085 266.415 L 343.189 266.413 344.192 265.624 L 345.195 264.835 345.195 154.917 L 345.195 44.998 344.339 44.769 C 343.405 44.519,52.352 44.554,50.333 44.804 " stroke="none" fill="#040404" fill-rule="evenodd"></path><path id="path4" d="M40.741 5.182 C 38.972 5.479,37.132 5.979,36.654 6.293 C 36.175 6.607,34.209 7.284,32.287 7.799 C 29.765 8.474,28.464 9.044,27.621 9.843 C 26.977 10.453,25.937 11.213,25.309 11.531 C 23.750 12.323,16.285 19.455,15.610 20.798 C 15.310 21.395,14.519 22.655,13.852 23.597 C 12.056 26.135,9.265 33.537,8.783 37.040 C 8.495 39.130,8.373 90.779,8.373 210.303 L 8.373 380.590 10.086 380.590 C 11.732 380.590,11.798 380.546,11.798 379.458 C 11.798 378.574,12.060 378.191,12.993 377.708 C 13.650 377.369,29.107 362.164,47.341 343.921 C 79.899 311.349,83.049 308.372,86.109 307.293 C 87.408 306.834,106.697 306.755,217.650 306.749 C 360.666 306.743,359.350 306.765,362.808 304.251 C 363.482 303.761,365.276 302.746,366.794 301.996 C 368.311 301.245,369.553 300.496,369.553 300.331 C 369.553 300.166,370.516 299.368,371.694 298.557 C 374.171 296.851,379.710 290.610,380.970 288.107 C 381.443 287.165,382.145 285.947,382.530 285.402 C 382.914 284.856,383.705 282.715,384.288 280.644 L 385.347 276.879 385.447 157.066 C 385.533 54.261,385.470 36.946,385.003 35.087 C 384.704 33.896,384.346 32.043,384.208 30.970 C 383.714 27.137,377.468 18.087,372.892 14.574 C 371.370 13.405,369.415 11.803,368.550 11.014 C 366.462 9.111,365.220 8.508,361.610 7.646 C 359.947 7.249,357.757 6.436,356.743 5.841 L 354.900 4.757 199.429 4.700 C 66.756 4.651,43.486 4.721,40.741 5.182 M355.471 7.462 C 356.413 7.903,358.297 8.476,359.657 8.734 C 362.434 9.262,364.225 9.857,364.225 10.252 C 364.225 10.397,364.889 10.890,365.700 11.346 C 366.512 11.802,367.856 12.855,368.687 13.686 C 369.518 14.517,371.090 15.797,372.180 16.531 C 373.347 17.316,374.772 18.770,375.644 20.065 C 376.459 21.275,377.624 22.727,378.233 23.293 C 378.842 23.858,379.547 24.886,379.800 25.576 C 380.053 26.267,380.661 27.602,381.151 28.544 C 381.642 29.486,382.217 31.199,382.430 32.350 C 382.642 33.501,383.000 34.926,383.225 35.515 C 383.891 37.256,383.785 275.899,383.118 278.404 C 382.839 279.452,381.986 281.608,381.222 283.196 C 380.459 284.783,379.726 286.621,379.595 287.279 C 379.369 288.406,377.803 290.390,377.138 290.390 C 376.972 290.390,376.715 290.768,376.569 291.230 C 376.272 292.165,370.888 297.621,370.263 297.621 C 370.044 297.621,369.116 298.392,368.201 299.334 C 367.286 300.276,366.192 301.047,365.772 301.047 C 364.812 301.047,361.301 302.672,360.038 303.700 C 358.220 305.181,355.336 305.213,219.220 305.240 C 78.879 305.268,84.292 305.187,82.323 307.275 C 81.617 308.023,80.431 308.924,79.686 309.277 C 78.865 309.667,78.086 310.435,77.708 311.229 C 77.341 311.999,76.514 312.829,75.704 313.243 C 74.886 313.660,74.124 314.428,73.834 315.128 C 73.540 315.839,72.780 316.599,71.929 317.032 C 71.064 317.474,70.264 318.281,69.871 319.109 C 69.457 319.982,68.765 320.656,67.920 321.009 C 67.066 321.366,66.381 322.039,65.948 322.947 C 65.543 323.795,64.747 324.612,63.905 325.041 C 63.088 325.458,62.326 326.226,62.036 326.927 C 61.742 327.637,60.982 328.397,60.131 328.831 C 59.272 329.269,58.466 330.079,58.080 330.892 C 57.687 331.721,56.925 332.478,56.078 332.879 C 55.211 333.291,54.519 333.988,54.185 334.788 C 53.851 335.588,53.123 336.321,52.193 336.795 C 51.296 337.253,50.537 338.002,50.238 338.725 C 49.948 339.425,49.186 340.194,48.369 340.611 C 47.538 341.034,46.731 341.856,46.341 342.674 C 45.928 343.540,45.228 344.228,44.415 344.568 C 43.598 344.909,42.904 345.594,42.489 346.468 C 42.088 347.315,41.331 348.077,40.502 348.470 C 39.689 348.856,38.879 349.662,38.441 350.521 C 38.007 351.372,37.247 352.132,36.537 352.426 C 35.814 352.726,35.065 353.485,34.607 354.381 C 34.132 355.312,33.399 356.039,32.600 356.373 C 31.800 356.707,31.103 357.399,30.691 358.266 C 30.287 359.119,29.533 359.875,28.688 360.276 C 27.866 360.666,27.087 361.434,26.709 362.228 C 26.342 362.998,25.515 363.828,24.705 364.242 C 23.887 364.659,23.125 365.427,22.835 366.127 C 22.541 366.838,21.781 367.598,20.930 368.032 C 20.071 368.470,19.265 369.280,18.879 370.093 C 18.505 370.882,17.727 371.677,16.983 372.030 C 16.270 372.369,15.395 373.241,14.969 374.040 C 14.171 375.538,12.007 376.003,10.915 374.911 C 10.572 374.568,10.442 335.274,10.365 208.069 L 10.265 41.675 11.058 37.488 C 12.356 30.642,13.223 27.865,14.645 26.003 C 15.360 25.067,16.151 23.676,16.403 22.913 C 16.838 21.593,21.997 15.985,22.776 15.985 C 22.962 15.985,23.546 15.333,24.074 14.536 C 24.758 13.501,25.481 12.952,26.598 12.617 C 27.536 12.336,28.501 11.692,29.006 11.009 C 29.920 9.773,31.646 9.153,36.346 8.374 C 37.812 8.131,40.295 7.627,41.865 7.255 C 44.578 6.612,52.368 6.580,199.239 6.619 L 353.758 6.660 355.471 7.462 M47.989 42.009 C 47.276 42.268,46.204 43.064,45.608 43.778 L 44.524 45.077 44.622 165.791 C 44.717 283.891,44.735 286.522,45.444 287.305 C 46.979 289.001,49.919 288.363,52.957 285.675 C 53.930 284.814,55.329 283.597,56.068 282.969 C 57.906 281.405,64.473 275.336,66.467 273.359 C 67.363 272.469,68.146 271.700,68.207 271.649 C 68.267 271.598,130.944 271.470,207.489 271.363 L 346.662 271.170 347.736 270.385 C 350.598 268.292,350.321 280.067,350.431 155.934 C 350.539 34.551,350.711 43.895,348.344 42.344 C 347.019 41.476,50.369 41.145,47.989 42.009 M347.638 44.120 L 348.620 45.042 348.620 155.062 C 348.619 277.268,348.847 266.548,346.214 268.479 L 345.139 269.267 207.489 269.458 L 69.838 269.648 68.058 270.471 C 66.444 271.217,58.573 277.980,55.756 281.041 C 55.128 281.724,54.015 282.682,53.283 283.171 C 52.550 283.660,51.296 284.639,50.496 285.346 C 48.971 286.694,48.599 286.666,47.288 285.103 C 46.910 284.652,46.813 259.978,46.813 164.527 L 46.813 44.518 48.049 43.762 C 49.278 43.012,50.240 43.007,197.971 43.102 L 346.656 43.197 347.638 44.120 " stroke="none" fill="#9c9c9c" fill-rule="evenodd"></path></g></svg>