<svg id="svg" version="1.1" xmlns="http://www.w3.org/2000/svg" xmlns:xlink="http://www.w3.org/1999/xlink" width="400" height="384.76190476190476" viewBox="0, 0, 400,384.76190476190476"><g id="svgg"><path id="path0" d="M53.705 11.739 C 53.494 11.811,50.275 12.167,46.552 12.530 L 39.784 13.191 39.364 14.304 C 39.059 15.113,38.422 15.634,37.036 16.210 C 35.891 16.686,34.962 17.367,34.713 17.915 C 34.484 18.417,33.769 19.100,33.123 19.434 C 32.478 19.768,31.524 20.715,31.004 21.540 C 30.483 22.364,29.702 23.151,29.267 23.289 C 28.832 23.427,28.123 24.232,27.692 25.077 C 27.261 25.923,26.311 26.967,25.581 27.397 C 24.725 27.902,24.253 28.474,24.251 29.008 C 24.243 31.260,22.764 35.902,21.702 37.010 L 20.597 38.164 20.482 202.239 C 20.420 292.480,20.481 367.433,20.618 368.801 L 20.868 371.288 21.393 370.039 C 21.724 369.252,22.386 368.594,23.182 368.261 C 23.971 367.931,24.736 367.176,25.217 366.253 C 25.761 365.206,26.360 364.664,27.265 364.398 C 28.224 364.116,28.597 363.752,28.759 362.942 C 28.998 361.746,30.525 360.346,31.590 360.346 C 32.040 360.346,32.365 359.949,32.530 359.196 C 32.807 357.935,34.358 356.497,35.440 356.497 C 35.890 356.497,36.215 356.100,36.380 355.346 C 36.660 354.070,38.211 352.647,39.320 352.647 C 39.765 352.647,40.038 352.373,40.038 351.929 C 40.038 350.819,41.462 349.269,42.738 348.988 C 43.491 348.823,43.888 348.498,43.888 348.048 C 43.888 346.966,45.327 345.416,46.588 345.139 C 47.341 344.973,47.738 344.649,47.738 344.198 C 47.738 343.116,49.177 341.566,50.438 341.289 C 51.191 341.123,51.588 340.799,51.588 340.349 C 51.588 339.292,53.015 337.718,54.212 337.455 C 54.999 337.283,55.384 336.888,55.651 335.982 C 55.904 335.122,56.466 334.510,57.495 333.975 C 58.405 333.501,59.173 332.729,59.491 331.968 C 59.825 331.171,60.529 330.487,61.477 330.042 C 62.428 329.595,62.988 329.050,63.067 328.495 C 63.208 327.503,64.849 326.083,65.854 326.083 C 66.304 326.083,66.629 325.686,66.794 324.933 C 67.071 323.671,68.621 322.233,69.704 322.233 C 70.154 322.233,70.478 321.836,70.644 321.083 C 70.921 319.821,72.471 318.383,73.554 318.383 C 74.004 318.383,74.328 317.986,74.494 317.233 C 74.774 315.957,76.325 314.533,77.434 314.533 C 77.878 314.533,78.152 314.259,78.152 313.815 C 78.152 312.706,79.576 311.155,80.852 310.875 C 81.605 310.709,82.002 310.385,82.002 309.935 C 82.002 308.852,83.440 307.302,84.702 307.025 C 85.455 306.860,85.852 306.535,85.852 306.085 C 85.852 305.014,87.285 303.453,88.515 303.183 C 89.264 303.019,89.706 302.633,89.863 302.010 C 90.371 299.983,82.262 300.110,224.486 299.904 L 357.153 299.711 358.694 298.319 C 359.936 297.197,360.827 296.798,363.275 296.271 C 367.471 295.366,367.661 295.299,367.661 294.723 C 367.661 293.837,369.019 292.494,370.363 292.053 C 371.365 291.723,371.735 291.333,371.991 290.336 C 372.251 289.327,372.645 288.919,373.800 288.465 C 374.932 288.021,375.415 287.534,375.869 286.379 C 376.293 285.298,376.830 284.719,377.770 284.326 C 379.008 283.809,379.106 283.625,379.572 280.965 C 380.169 277.558,381.344 274.662,382.441 273.894 L 383.253 273.325 383.253 155.126 L 383.253 36.928 381.792 35.692 C 380.479 34.581,380.270 34.143,379.723 31.346 C 379.171 28.519,379.016 28.199,378.017 27.822 C 377.394 27.587,376.726 26.932,376.476 26.312 C 375.546 24.002,375.249 23.557,374.375 23.158 C 373.879 22.932,373.212 22.244,372.894 21.628 C 372.576 21.012,371.718 20.225,370.989 19.879 C 370.259 19.532,369.310 18.653,368.880 17.924 C 368.303 16.946,367.678 16.485,366.501 16.168 C 365.381 15.866,364.712 15.397,364.261 14.595 C 363.530 13.295,363.553 13.302,357.844 12.421 C 354.001 11.827,55.420 11.158,53.705 11.739 M348.450 44.182 C 349.213 44.446,350.166 45.026,350.568 45.471 C 351.570 46.579,351.736 263.553,350.735 265.422 C 349.372 267.970,362.100 267.737,212.320 267.953 C 137.786 268.060,76.753 268.190,76.690 268.241 C 76.626 268.293,74.825 270.051,72.686 272.148 C 70.341 274.447,68.386 276.044,67.762 276.169 C 66.993 276.322,66.636 276.704,66.374 277.649 C 66.108 278.610,65.637 279.101,64.451 279.654 C 63.315 280.183,62.782 280.717,62.527 281.579 C 62.277 282.427,61.730 282.986,60.635 283.512 C 59.788 283.919,58.957 284.482,58.787 284.763 C 57.757 286.475,54.811 286.848,53.484 285.436 L 52.551 284.442 52.452 165.641 C 52.364 60.355,52.419 46.740,52.933 45.955 C 53.703 44.780,54.592 44.343,57.048 43.932 C 60.499 43.355,346.775 43.600,348.450 44.182 " stroke="none" fill="#c23b23" fill-rule="evenodd"></path><path id="path1" d="M46.776 6.734 C 46.564 6.805,45.932 6.963,45.372 7.086 C 44.811 7.209,43.654 7.893,42.800 8.606 C 41.660 9.559,40.713 9.974,39.231 10.171 C 36.474 10.536,34.733 11.329,34.222 12.450 C 33.986 12.967,33.000 13.799,32.030 14.299 C 31.057 14.800,29.985 15.724,29.637 16.362 C 29.291 16.997,28.632 17.705,28.173 17.936 C 26.855 18.599,25.882 19.615,25.639 20.586 C 25.515 21.078,24.798 21.844,24.045 22.288 C 22.633 23.121,21.663 24.854,21.277 27.234 C 21.129 28.144,20.746 28.690,19.977 29.088 C 17.213 30.518,17.343 21.786,17.333 207.043 L 17.324 373.471 18.316 374.463 C 20.154 376.301,23.894 375.182,24.455 372.626 C 24.614 371.904,24.942 371.511,25.388 371.511 C 26.470 371.511,28.020 370.073,28.297 368.811 C 28.463 368.058,28.787 367.661,29.238 367.661 C 30.294 367.661,31.868 366.234,32.131 365.037 C 32.304 364.250,32.698 363.865,33.604 363.598 C 34.503 363.333,35.052 362.803,35.611 361.656 C 36.148 360.555,36.730 359.974,37.536 359.731 C 38.304 359.500,38.949 358.889,39.461 357.905 C 39.942 356.982,40.706 356.227,41.495 355.897 C 42.299 355.561,42.952 354.907,43.288 354.104 C 43.619 353.314,44.373 352.550,45.297 352.069 C 46.305 351.545,46.888 350.919,47.128 350.106 C 47.382 349.244,47.915 348.710,49.053 348.181 C 50.166 347.663,50.727 347.112,50.973 346.295 C 51.215 345.489,51.797 344.907,52.898 344.370 C 54.045 343.810,54.575 343.262,54.840 342.362 C 55.107 341.456,55.492 341.062,56.279 340.889 C 57.476 340.626,58.903 339.053,58.903 337.996 C 58.903 337.551,59.295 337.222,60.018 337.064 C 61.347 336.772,62.213 335.893,62.566 334.479 C 62.747 333.754,63.149 333.372,63.904 333.206 C 65.185 332.924,66.065 332.034,66.403 330.679 C 66.572 330.002,67.033 329.581,67.877 329.332 C 68.766 329.070,69.317 328.535,69.875 327.393 C 70.412 326.292,70.994 325.710,71.800 325.468 C 72.618 325.222,73.168 324.661,73.687 323.547 C 74.216 322.410,74.749 321.877,75.612 321.622 C 76.425 321.383,77.050 320.799,77.575 319.791 C 78.055 318.868,78.820 318.113,79.609 317.783 C 80.412 317.447,81.066 316.793,81.402 315.990 C 81.732 315.201,82.487 314.436,83.410 313.956 C 84.418 313.431,85.001 312.806,85.241 311.993 C 85.496 311.130,86.029 310.597,87.166 310.068 C 88.285 309.547,88.838 309.002,89.081 308.179 C 89.360 307.233,89.852 306.847,91.776 306.062 L 94.129 305.101 222.714 304.909 C 297.836 304.796,351.619 304.572,352.069 304.369 C 352.493 304.178,353.107 303.793,353.435 303.514 C 353.769 303.229,356.247 302.761,359.084 302.447 C 364.503 301.847,365.250 301.606,366.455 300.073 C 366.884 299.529,367.846 298.914,368.594 298.708 C 370.306 298.235,378.826 289.952,378.826 288.761 C 378.826 288.234,379.259 287.799,380.155 287.424 C 381.285 286.952,381.574 286.558,382.090 284.781 C 382.536 283.248,382.956 282.575,383.669 282.250 C 386.597 280.916,386.524 284.188,386.521 154.957 C 386.519 27.001,386.611 31.303,383.836 29.724 C 383.004 29.251,382.618 28.689,382.461 27.719 C 382.016 24.983,381.100 23.100,379.915 22.488 C 379.283 22.161,378.533 21.338,378.250 20.660 C 377.656 19.238,376.697 18.299,375.451 17.919 C 374.961 17.770,374.339 17.081,374.032 16.348 C 373.643 15.416,372.988 14.808,371.744 14.223 C 370.785 13.772,369.900 13.088,369.778 12.703 C 369.434 11.619,367.839 10.772,365.295 10.324 C 363.499 10.008,362.688 9.631,361.717 8.659 C 360.849 7.791,359.842 7.270,358.460 6.974 C 356.636 6.583,47.941 6.345,46.776 6.734 M354.705 7.688 C 355.942 7.890,358.021 8.570,359.324 9.198 C 360.628 9.826,362.692 10.625,363.912 10.973 C 365.132 11.322,366.605 11.997,367.184 12.474 C 367.764 12.950,369.018 13.880,369.971 14.539 C 372.197 16.079,376.438 20.155,377.876 22.137 C 378.491 22.984,379.474 24.244,380.062 24.938 C 380.649 25.631,381.331 26.998,381.577 27.976 C 381.823 28.953,382.546 30.346,383.183 31.072 C 385.745 33.990,385.547 24.379,385.676 152.262 C 385.805 280.898,385.848 278.739,383.129 280.420 C 382.907 280.557,382.356 281.662,381.905 282.875 C 381.408 284.209,380.447 285.729,379.474 286.718 C 378.588 287.618,377.035 289.264,376.024 290.376 C 374.229 292.347,373.801 292.787,370.790 295.757 C 369.990 296.546,368.388 297.611,367.231 298.122 C 366.075 298.634,364.896 299.332,364.612 299.675 C 364.034 300.371,361.403 301.208,357.652 301.890 C 355.776 302.231,322.408 302.400,224.345 302.568 L 93.541 302.791 92.680 303.842 C 92.207 304.421,91.174 305.157,90.385 305.480 C 89.523 305.832,88.706 306.537,88.340 307.247 C 88.004 307.896,87.127 308.783,86.391 309.217 C 85.656 309.651,84.789 310.517,84.466 311.142 C 84.143 311.766,83.277 312.633,82.541 313.067 C 81.806 313.501,80.940 314.367,80.617 314.992 C 80.294 315.616,79.427 316.482,78.692 316.917 C 77.956 317.351,77.090 318.217,76.767 318.841 C 76.444 319.466,75.577 320.332,74.842 320.766 C 74.106 321.200,73.240 322.067,72.917 322.691 C 72.594 323.316,71.736 324.177,71.010 324.606 C 70.284 325.034,69.472 325.838,69.205 326.393 C 68.938 326.948,68.127 327.800,67.403 328.288 C 66.679 328.775,65.771 329.693,65.386 330.327 C 65.000 330.961,64.146 331.807,63.488 332.208 C 62.829 332.608,61.963 333.474,61.563 334.132 C 61.162 334.791,60.296 335.657,59.638 336.057 C 58.979 336.458,58.113 337.324,57.713 337.982 C 57.312 338.641,56.446 339.507,55.788 339.907 C 55.130 340.308,54.263 341.174,53.863 341.832 C 53.463 342.491,52.616 343.345,51.982 343.730 C 51.348 344.116,50.431 345.024,49.943 345.748 C 49.456 346.472,48.586 347.291,48.011 347.567 C 47.436 347.844,46.696 348.592,46.366 349.231 C 46.036 349.869,45.164 350.746,44.428 351.180 C 43.692 351.614,42.826 352.481,42.503 353.105 C 42.180 353.730,41.322 354.591,40.596 355.020 C 39.870 355.448,39.058 356.252,38.791 356.807 C 38.524 357.361,37.714 358.214,36.989 358.702 C 36.265 359.189,35.357 360.107,34.972 360.741 C 34.586 361.375,33.732 362.221,33.074 362.621 C 32.415 363.022,31.549 363.888,31.149 364.546 C 30.748 365.205,29.882 366.071,29.224 366.471 C 28.566 366.872,27.696 367.743,27.292 368.408 C 26.888 369.072,25.960 369.969,25.230 370.399 C 24.500 370.830,23.800 371.508,23.673 371.907 C 22.846 374.513,19.844 374.932,18.643 372.610 C 18.171 371.697,18.095 348.546,18.098 206.083 C 18.102 22.045,17.944 33.300,20.563 30.401 C 21.322 29.560,21.944 28.605,21.944 28.280 C 21.944 27.285,23.520 24.529,24.984 22.963 C 29.622 18.005,32.354 15.387,33.879 14.439 C 34.832 13.846,36.153 12.891,36.816 12.315 C 37.614 11.623,38.973 11.054,40.834 10.634 C 42.381 10.284,44.433 9.538,45.393 8.975 C 46.465 8.347,48.036 7.849,49.460 7.686 C 53.165 7.261,352.112 7.263,354.705 7.688 M57.652 46.875 L 56.593 47.532 56.597 162.457 C 56.599 225.666,56.711 278.047,56.845 278.859 C 57.354 281.937,58.336 281.658,62.885 277.145 C 67.367 272.697,67.304 272.759,68.719 271.415 C 69.276 270.885,70.631 269.565,71.729 268.480 C 72.869 267.354,74.694 266.074,75.985 265.497 L 78.245 264.485 211.594 264.485 L 344.942 264.485 346.100 262.887 L 347.257 261.290 347.257 154.365 L 347.257 47.441 345.948 46.820 C 343.869 45.833,59.243 45.888,57.652 46.875 M345.108 47.202 C 345.855 47.489,346.064 260.423,345.319 261.815 C 344.926 262.550,343.010 262.560,211.152 262.560 L 77.384 262.560 75.940 263.857 C 75.145 264.570,74.062 265.283,73.532 265.442 C 72.144 265.859,71.301 266.714,71.021 267.990 C 70.886 268.603,70.522 269.105,70.210 269.105 C 69.084 269.105,67.378 270.295,67.139 271.248 C 66.984 271.866,66.384 272.462,65.497 272.877 C 64.603 273.297,63.846 274.052,63.394 274.977 C 62.960 275.865,62.328 276.512,61.752 276.656 C 60.627 276.938,59.303 278.520,59.247 279.648 C 59.221 280.174,59.027 279.917,58.700 278.922 C 57.969 276.705,57.884 47.518,58.614 47.223 C 59.307 46.943,344.379 46.922,345.108 47.202 " stroke="none" fill="#2e0c0a" fill-rule="evenodd"></path><path id="path2" d="M49.471 9.287 C 48.624 9.482,47.394 9.893,46.738 10.201 C 46.083 10.508,44.111 11.094,42.356 11.502 C 40.602 11.911,38.713 12.615,38.159 13.066 C 37.605 13.518,36.385 14.357,35.448 14.932 C 31.976 17.063,23.903 25.843,23.075 28.390 C 22.816 29.185,22.117 30.529,21.521 31.376 C 19.068 34.860,19.216 23.085,19.334 206.050 C 19.434 360.622,19.486 371.912,20.087 372.514 C 20.692 373.118,22.933 370.962,54.992 338.938 C 73.835 320.116,90.082 304.023,91.096 303.176 L 92.941 301.636 224.430 301.432 C 368.671 301.207,358.444 301.380,362.137 299.098 C 362.832 298.668,364.490 297.891,365.820 297.370 C 367.150 296.850,368.845 295.825,369.586 295.091 C 370.327 294.358,371.582 293.106,372.375 292.308 C 373.168 291.510,374.107 290.597,374.463 290.279 C 374.818 289.962,375.469 289.302,375.909 288.812 C 376.349 288.323,377.447 287.174,378.350 286.259 C 379.415 285.178,380.257 283.823,380.747 282.399 C 381.162 281.191,382.014 279.309,382.639 278.215 C 384.695 274.622,384.637 278.487,384.518 153.032 L 384.408 36.381 383.446 34.583 C 382.136 32.136,380.960 29.736,380.228 28.017 C 378.282 23.446,366.071 11.935,363.169 11.935 C 362.878 11.935,360.589 11.242,358.083 10.395 L 353.525 8.855 202.268 8.893 C 111.563 8.917,50.394 9.074,49.471 9.287 M357.844 12.421 C 363.553 13.302,363.530 13.295,364.261 14.595 C 364.712 15.397,365.381 15.866,366.501 16.168 C 367.678 16.485,368.303 16.946,368.880 17.924 C 369.310 18.653,370.259 19.532,370.989 19.879 C 371.718 20.225,372.576 21.012,372.894 21.628 C 373.212 22.244,373.879 22.932,374.375 23.158 C 375.249 23.557,375.546 24.002,376.476 26.312 C 376.726 26.932,377.394 27.587,378.017 27.822 C 379.016 28.199,379.171 28.519,379.723 31.346 C 380.270 34.143,380.479 34.581,381.792 35.692 L 383.253 36.928 383.253 155.126 L 383.253 273.325 382.441 273.894 C 381.344 274.662,380.169 277.558,379.572 280.965 C 379.106 283.625,379.008 283.809,377.770 284.326 C 376.830 284.719,376.293 285.298,375.869 286.379 C 375.415 287.534,374.932 288.021,373.800 288.465 C 372.645 288.919,372.251 289.327,371.991 290.336 C 371.735 291.333,371.365 291.723,370.363 292.053 C 369.019 292.494,367.661 293.837,367.661 294.723 C 367.661 295.299,367.471 295.366,363.275 296.271 C 360.827 296.798,359.936 297.197,358.694 298.319 L 357.153 299.711 224.486 299.904 C 82.262 300.110,90.371 299.983,89.863 302.010 C 89.706 302.633,89.264 303.019,88.515 303.183 C 87.285 303.453,85.852 305.014,85.852 306.085 C 85.852 306.535,85.455 306.860,84.702 307.025 C 83.440 307.302,82.002 308.852,82.002 309.935 C 82.002 310.385,81.605 310.709,80.852 310.875 C 79.576 311.155,78.152 312.706,78.152 313.815 C 78.152 314.259,77.878 314.533,77.434 314.533 C 76.325 314.533,74.774 315.957,74.494 317.233 C 74.328 317.986,74.004 318.383,73.554 318.383 C 72.471 318.383,70.921 319.821,70.644 321.083 C 70.478 321.836,70.154 322.233,69.704 322.233 C 68.621 322.233,67.071 323.671,66.794 324.933 C 66.629 325.686,66.304 326.083,65.854 326.083 C 64.849 326.083,63.208 327.503,63.067 328.495 C 62.988 329.050,62.428 329.595,61.477 330.042 C 60.529 330.487,59.825 331.171,59.491 331.968 C 59.173 332.729,58.405 333.501,57.495 333.975 C 56.466 334.510,55.904 335.122,55.651 335.982 C 55.384 336.888,54.999 337.283,54.212 337.455 C 53.015 337.718,51.588 339.292,51.588 340.349 C 51.588 340.799,51.191 341.123,50.438 341.289 C 49.177 341.566,47.738 343.116,47.738 344.198 C 47.738 344.649,47.341 344.973,46.588 345.139 C 45.327 345.416,43.888 346.966,43.888 348.048 C 43.888 348.498,43.491 348.823,42.738 348.988 C 41.462 349.269,40.038 350.819,40.038 351.929 C 40.038 352.373,39.765 352.647,39.320 352.647 C 38.211 352.647,36.660 354.070,36.380 355.346 C 36.215 356.100,35.890 356.497,35.440 356.497 C 34.358 356.497,32.807 357.935,32.530 359.196 C 32.365 359.949,32.040 360.346,31.590 360.346 C 30.525 360.346,28.998 361.746,28.759 362.942 C 28.597 363.752,28.224 364.116,27.265 364.398 C 26.360 364.664,25.761 365.206,25.217 366.253 C 24.736 367.176,23.971 367.931,23.182 368.261 C 22.386 368.594,21.724 369.252,21.393 370.039 L 20.868 371.288 20.618 368.801 C 20.481 367.433,20.420 292.480,20.482 202.239 L 20.597 38.164 21.702 37.010 C 22.764 35.902,24.243 31.260,24.251 29.008 C 24.253 28.474,24.725 27.902,25.581 27.397 C 26.311 26.967,27.261 25.923,27.692 25.077 C 28.123 24.232,28.832 23.427,29.267 23.289 C 29.702 23.151,30.483 22.364,31.004 21.540 C 31.524 20.715,32.478 19.768,33.123 19.434 C 33.769 19.100,34.484 18.417,34.713 17.915 C 34.962 17.367,35.891 16.686,37.036 16.210 C 38.422 15.634,39.059 15.113,39.364 14.304 L 39.784 13.191 46.552 12.530 C 50.275 12.167,53.494 11.811,53.705 11.739 C 55.420 11.158,354.001 11.827,357.844 12.421 M57.048 43.932 C 54.592 44.343,53.703 44.780,52.933 45.955 C 52.419 46.740,52.364 60.355,52.452 165.641 L 52.551 284.442 53.484 285.436 C 54.811 286.848,57.757 286.475,58.787 284.763 C 58.957 284.482,59.788 283.919,60.635 283.512 C 61.730 282.986,62.277 282.427,62.527 281.579 C 62.782 280.717,63.315 280.183,64.451 279.654 C 65.637 279.101,66.108 278.610,66.374 277.649 C 66.636 276.704,66.993 276.322,67.762 276.169 C 68.386 276.044,70.341 274.447,72.686 272.148 C 74.825 270.051,76.626 268.293,76.690 268.241 C 76.753 268.190,137.786 268.060,212.320 267.953 C 362.100 267.737,349.372 267.970,350.735 265.422 C 351.736 263.553,351.570 46.579,350.568 45.471 C 348.890 43.617,355.919 43.704,203.080 43.645 C 120.526 43.613,58.222 43.736,57.048 43.932 M346.389 45.635 C 347.169 45.961,348.116 46.508,348.494 46.850 C 349.151 47.445,349.182 52.223,349.182 154.510 L 349.182 261.547 348.373 263.219 C 347.920 264.154,347.080 265.141,346.467 265.458 C 345.507 265.954,328.706 266.025,212.050 266.025 L 78.730 266.025 76.272 266.891 C 74.327 267.577,73.614 268.058,72.852 269.201 C 72.323 269.995,71.740 270.645,71.556 270.645 C 71.372 270.645,70.226 271.596,69.009 272.759 C 67.791 273.922,66.449 275.199,66.025 275.598 C 65.602 275.997,64.884 276.735,64.430 277.238 C 63.977 277.741,63.111 278.609,62.506 279.168 C 61.900 279.727,60.934 280.707,60.358 281.345 C 58.772 283.105,55.217 283.313,54.889 281.665 C 54.215 278.289,54.672 47.469,55.353 46.852 C 57.444 44.960,48.096 45.075,201.841 45.058 C 329.797 45.045,345.122 45.106,346.389 45.635 " stroke="none" fill="#942c1c" fill-rule="evenodd"></path><path id="path3" d="M49.460 7.686 C 48.036 7.849,46.465 8.347,45.393 8.975 C 44.433 9.538,42.381 10.284,40.834 10.634 C 38.973 11.054,37.614 11.623,36.816 12.315 C 36.153 12.891,34.832 13.846,33.879 14.439 C 32.354 15.387,29.622 18.005,24.984 22.963 C 23.520 24.529,21.944 27.285,21.944 28.280 C 21.944 28.605,21.322 29.560,20.563 30.401 C 17.944 33.300,18.102 22.045,18.098 206.083 C 18.095 348.546,18.171 371.697,18.643 372.610 C 19.844 374.932,22.846 374.513,23.673 371.907 C 23.800 371.508,24.500 370.830,25.230 370.399 C 25.960 369.969,26.888 369.072,27.292 368.408 C 27.696 367.743,28.566 366.872,29.224 366.471 C 29.882 366.071,30.748 365.205,31.149 364.546 C 31.549 363.888,32.415 363.022,33.074 362.621 C 33.732 362.221,34.586 361.375,34.972 360.741 C 35.357 360.107,36.265 359.189,36.989 358.702 C 37.714 358.214,38.524 357.361,38.791 356.807 C 39.058 356.252,39.870 355.448,40.596 355.020 C 41.322 354.591,42.180 353.730,42.503 353.105 C 42.826 352.481,43.692 351.614,44.428 351.180 C 45.164 350.746,46.036 349.869,46.366 349.231 C 46.696 348.592,47.436 347.844,48.011 347.567 C 48.586 347.291,49.456 346.472,49.943 345.748 C 50.431 345.024,51.348 344.116,51.982 343.730 C 52.616 343.345,53.463 342.491,53.863 341.832 C 54.263 341.174,55.130 340.308,55.788 339.907 C 56.446 339.507,57.312 338.641,57.713 337.982 C 58.113 337.324,58.979 336.458,59.638 336.057 C 60.296 335.657,61.162 334.791,61.563 334.132 C 61.963 333.474,62.829 332.608,63.488 332.208 C 64.146 331.807,65.000 330.961,65.386 330.327 C 65.771 329.693,66.679 328.775,67.403 328.288 C 68.127 327.800,68.938 326.948,69.205 326.393 C 69.472 325.838,70.284 325.034,71.010 324.606 C 71.736 324.177,72.594 323.316,72.917 322.691 C 73.240 322.067,74.106 321.200,74.842 320.766 C 75.577 320.332,76.444 319.466,76.767 318.841 C 77.090 318.217,77.956 317.351,78.692 316.917 C 79.427 316.482,80.294 315.616,80.617 314.992 C 80.940 314.367,81.806 313.501,82.541 313.067 C 83.277 312.633,84.143 311.766,84.466 311.142 C 84.789 310.517,85.656 309.651,86.391 309.217 C 87.127 308.783,88.004 307.896,88.340 307.247 C 88.706 306.537,89.523 305.832,90.385 305.480 C 91.174 305.157,92.207 304.421,92.680 303.842 L 93.541 302.791 224.345 302.568 C 322.408 302.400,355.776 302.231,357.652 301.890 C 361.403 301.208,364.034 300.371,364.612 299.675 C 364.896 299.332,366.075 298.634,367.231 298.122 C 368.388 297.611,369.990 296.546,370.790 295.757 C 373.801 292.787,374.229 292.347,376.024 290.376 C 377.035 289.264,378.588 287.618,379.474 286.718 C 380.447 285.729,381.408 284.209,381.905 282.875 C 382.356 281.662,382.907 280.557,383.129 280.420 C 385.848 278.739,385.805 280.898,385.676 152.262 C 385.547 24.379,385.745 33.990,383.183 31.072 C 382.546 30.346,381.823 28.953,381.577 27.976 C 381.331 26.998,380.649 25.631,380.062 24.938 C 379.474 24.244,378.491 22.984,377.876 22.137 C 376.438 20.155,372.197 16.079,369.971 14.539 C 369.018 13.880,367.764 12.950,367.184 12.474 C 366.605 11.997,365.132 11.322,363.912 10.973 C 362.692 10.625,360.628 9.826,359.324 9.198 C 358.021 8.570,355.942 7.890,354.705 7.688 C 352.112 7.263,53.165 7.261,49.460 7.686 M358.083 10.395 C 360.589 11.242,362.878 11.935,363.169 11.935 C 366.071 11.935,378.282 23.446,380.228 28.017 C 380.960 29.736,382.136 32.136,383.446 34.583 L 384.408 36.381 384.518 153.032 C 384.637 278.487,384.695 274.622,382.639 278.215 C 382.014 279.309,381.162 281.191,380.747 282.399 C 380.257 283.823,379.415 285.178,378.350 286.259 C 377.447 287.174,376.349 288.323,375.909 288.812 C 375.469 289.302,374.818 289.962,374.463 290.279 C 374.107 290.597,373.168 291.510,372.375 292.308 C 371.582 293.106,370.327 294.358,369.586 295.091 C 368.845 295.825,367.150 296.850,365.820 297.370 C 364.490 297.891,362.832 298.668,362.137 299.098 C 358.444 301.380,368.671 301.207,224.430 301.432 L 92.941 301.636 91.096 303.176 C 90.082 304.023,73.835 320.116,54.992 338.938 C 22.933 370.962,20.692 373.118,20.087 372.514 C 19.486 371.912,19.434 360.622,19.334 206.050 C 19.216 23.085,19.068 34.860,21.521 31.376 C 22.117 30.529,22.816 29.185,23.075 28.390 C 23.903 25.843,31.976 17.063,35.448 14.932 C 36.385 14.357,37.605 13.518,38.159 13.066 C 38.713 12.615,40.602 11.911,42.356 11.502 C 44.111 11.094,46.083 10.508,46.738 10.201 C 47.394 9.893,48.624 9.482,49.471 9.287 C 50.394 9.074,111.563 8.917,202.268 8.893 L 353.525 8.855 358.083 10.395 M57.374 45.653 C 56.640 45.972,55.730 46.511,55.353 46.852 C 54.672 47.469,54.215 278.289,54.889 281.665 C 55.217 283.313,58.772 283.105,60.358 281.345 C 60.934 280.707,61.900 279.727,62.506 279.168 C 63.111 278.609,63.977 277.741,64.430 277.238 C 64.884 276.735,65.602 275.997,66.025 275.598 C 66.449 275.199,67.791 273.922,69.009 272.759 C 70.226 271.596,71.372 270.645,71.556 270.645 C 71.740 270.645,72.323 269.995,72.852 269.201 C 73.614 268.058,74.327 267.577,76.272 266.891 L 78.730 266.025 212.050 266.025 C 328.706 266.025,345.507 265.954,346.467 265.458 C 347.080 265.141,347.920 264.154,348.373 263.219 L 349.182 261.547 349.182 154.510 C 349.182 52.223,349.151 47.445,348.494 46.850 C 346.366 44.924,356.008 45.042,201.841 45.058 C 75.265 45.072,58.556 45.140,57.374 45.653 M345.948 46.820 L 347.257 47.441 347.257 154.365 L 347.257 261.290 346.100 262.887 L 344.942 264.485 211.594 264.485 L 78.245 264.485 75.985 265.497 C 74.694 266.074,72.869 267.354,71.729 268.480 C 70.631 269.565,69.276 270.885,68.719 271.415 C 67.304 272.759,67.367 272.697,62.885 277.145 C 58.336 281.658,57.354 281.937,56.845 278.859 C 56.711 278.047,56.599 225.666,56.597 162.457 L 56.593 47.532 57.652 46.875 C 59.243 45.888,343.869 45.833,345.948 46.820 " stroke="none" fill="#4f150d" fill-rule="evenodd"></path><path id="path4" d="M0.000 192.493 L 0.000 384.986 200.000 384.986 L 400.000 384.986 400.000 192.493 L 400.000 0.000 200.000 0.000 L 0.000 0.000 0.000 192.493 M358.460 6.974 C 359.842 7.270,360.849 7.791,361.717 8.659 C 362.688 9.631,363.499 10.008,365.295 10.324 C 367.839 10.772,369.434 11.619,369.778 12.703 C 369.900 13.088,370.785 13.772,371.744 14.223 C 372.988 14.808,373.643 15.416,374.032 16.348 C 374.339 17.081,374.961 17.770,375.451 17.919 C 376.697 18.299,377.656 19.238,378.250 20.660 C 378.533 21.338,379.283 22.161,379.915 22.488 C 381.100 23.100,382.016 24.983,382.461 27.719 C 382.618 28.689,383.004 29.251,383.836 29.724 C 386.611 31.303,386.519 27.001,386.521 154.957 C 386.524 284.188,386.597 280.916,383.669 282.250 C 382.956 282.575,382.536 283.248,382.090 284.781 C 381.574 286.558,381.285 286.952,380.155 287.424 C 379.259 287.799,378.826 288.234,378.826 288.761 C 378.826 289.952,370.306 298.235,368.594 298.708 C 367.846 298.914,366.884 299.529,366.455 300.073 C 365.250 301.606,364.503 301.847,359.084 302.447 C 356.247 302.761,353.769 303.229,353.435 303.514 C 353.107 303.793,352.493 304.178,352.069 304.369 C 351.619 304.572,297.836 304.796,222.714 304.909 L 94.129 305.101 91.776 306.062 C 89.852 306.847,89.360 307.233,89.081 308.179 C 88.838 309.002,88.285 309.547,87.166 310.068 C 86.029 310.597,85.496 311.130,85.241 311.993 C 85.001 312.806,84.418 313.431,83.410 313.956 C 82.487 314.436,81.732 315.201,81.402 315.990 C 81.066 316.793,80.412 317.447,79.609 317.783 C 78.820 318.113,78.055 318.868,77.575 319.791 C 77.050 320.799,76.425 321.383,75.612 321.622 C 74.749 321.877,74.216 322.410,73.687 323.547 C 73.168 324.661,72.618 325.222,71.800 325.468 C 70.994 325.710,70.412 326.292,69.875 327.393 C 69.317 328.535,68.766 329.070,67.877 329.332 C 67.033 329.581,66.572 330.002,66.403 330.679 C 66.065 332.034,65.185 332.924,63.904 333.206 C 63.149 333.372,62.747 333.754,62.566 334.479 C 62.213 335.893,61.347 336.772,60.018 337.064 C 59.295 337.222,58.903 337.551,58.903 337.996 C 58.903 339.053,57.476 340.626,56.279 340.889 C 55.492 341.062,55.107 341.456,54.840 342.362 C 54.575 343.262,54.045 343.810,52.898 344.370 C 51.797 344.907,51.215 345.489,50.973 346.295 C 50.727 347.112,50.166 347.663,49.053 348.181 C 47.915 348.710,47.382 349.244,47.128 350.106 C 46.888 350.919,46.305 351.545,45.297 352.069 C 44.373 352.550,43.619 353.314,43.288 354.104 C 42.952 354.907,42.299 355.561,41.495 355.897 C 40.706 356.227,39.942 356.982,39.461 357.905 C 38.949 358.889,38.304 359.500,37.536 359.731 C 36.730 359.974,36.148 360.555,35.611 361.656 C 35.052 362.803,34.503 363.333,33.604 363.598 C 32.698 363.865,32.304 364.250,32.131 365.037 C 31.868 366.234,30.294 367.661,29.238 367.661 C 28.787 367.661,28.463 368.058,28.297 368.811 C 28.020 370.073,26.470 371.511,25.388 371.511 C 24.942 371.511,24.614 371.904,24.455 372.626 C 23.894 375.182,20.154 376.301,18.316 374.463 L 17.324 373.471 17.333 207.043 C 17.343 21.786,17.213 30.518,19.977 29.088 C 20.746 28.690,21.129 28.144,21.277 27.234 C 21.663 24.854,22.633 23.121,24.045 22.288 C 24.798 21.844,25.515 21.078,25.639 20.586 C 25.882 19.615,26.855 18.599,28.173 17.936 C 28.632 17.705,29.291 16.997,29.637 16.362 C 29.985 15.724,31.057 14.800,32.030 14.299 C 33.000 13.799,33.986 12.967,34.222 12.450 C 34.733 11.329,36.474 10.536,39.231 10.171 C 40.713 9.974,41.660 9.559,42.800 8.606 C 43.654 7.893,44.811 7.209,45.372 7.086 C 45.932 6.963,46.564 6.805,46.776 6.734 C 47.941 6.345,356.636 6.583,358.460 6.974 M58.614 47.223 C 57.884 47.518,57.969 276.705,58.700 278.922 C 59.027 279.917,59.221 280.174,59.247 279.648 C 59.303 278.520,60.627 276.938,61.752 276.656 C 62.328 276.512,62.960 275.865,63.394 274.977 C 63.846 274.052,64.603 273.297,65.497 272.877 C 66.384 272.462,66.984 271.866,67.139 271.248 C 67.378 270.295,69.084 269.105,70.210 269.105 C 70.522 269.105,70.886 268.603,71.021 267.990 C 71.301 266.714,72.144 265.859,73.532 265.442 C 74.062 265.283,75.145 264.570,75.940 263.857 L 77.384 262.560 211.152 262.560 C 343.010 262.560,344.926 262.550,345.319 261.815 C 346.064 260.423,345.855 47.489,345.108 47.202 C 344.379 46.922,59.307 46.943,58.614 47.223 " stroke="none" fill="#040404" fill-rule="evenodd"></path></g></svg>