<svg id="svg" version="1.1" xmlns="http://www.w3.org/2000/svg" xmlns:xlink="http://www.w3.org/1999/xlink" width="400" height="253.33333333333334" viewBox="0, 0, 400,253.33333333333334"><g id="svgg"><path id="path0" d="M22.433 20.787 C 19.585 21.076,18.450 21.475,17.867 22.391 C 17.424 23.086,16.898 23.438,14.957 24.339 C 14.748 24.436,14.284 25.016,13.927 25.628 C 13.569 26.239,12.831 27.042,12.287 27.412 C 11.662 27.836,11.125 28.490,10.830 29.188 C 10.574 29.795,9.867 31.033,9.261 31.939 C 6.768 35.665,6.695 46.407,9.145 49.090 C 9.674 49.670,10.235 50.619,10.392 51.200 C 10.710 52.380,14.566 56.527,15.346 56.527 C 15.580 56.527,16.265 57.027,16.868 57.639 C 20.136 60.954,36.610 60.880,38.835 57.541 C 39.161 57.052,39.988 56.365,40.679 56.008 C 41.548 55.561,42.129 55.026,42.576 54.264 C 42.930 53.659,43.612 52.954,44.092 52.697 C 45.378 52.008,45.506 51.787,45.982 49.430 C 46.749 45.640,47.199 44.009,47.821 42.772 L 48.428 41.564 47.657 38.209 C 45.977 30.897,45.741 30.272,43.938 28.329 C 43.325 27.668,42.598 26.602,42.323 25.960 C 42.021 25.257,41.617 24.740,41.305 24.658 C 40.239 24.379,37.234 22.809,36.651 22.225 C 35.170 20.744,29.000 20.120,22.433 20.787 M94.106 21.068 L 93.283 21.596 93.283 40.026 L 93.283 58.456 94.119 59.266 L 94.954 60.076 241.659 60.076 L 388.364 60.076 388.978 59.379 L 389.591 58.682 389.599 40.158 L 389.607 21.635 389.020 21.083 L 388.434 20.532 241.682 20.537 L 94.930 20.541 94.106 21.068 M24.842 106.494 C 18.669 107.488,17.893 107.731,16.287 109.169 C 11.886 113.111,10.695 114.501,10.298 116.153 C 10.207 116.533,9.676 117.283,9.118 117.819 C 7.600 119.278,7.257 121.183,7.432 127.168 C 7.578 132.125,7.645 132.402,9.057 133.880 C 9.632 134.482,10.189 135.506,10.644 136.795 C 11.270 138.572,11.459 138.851,12.417 139.417 C 13.023 139.775,13.732 140.484,14.044 141.044 C 14.349 141.590,14.764 142.118,14.967 142.215 C 15.170 142.313,15.858 142.625,16.496 142.908 C 17.134 143.192,18.192 143.887,18.847 144.454 C 20.325 145.733,21.091 145.937,25.222 146.149 C 30.801 146.435,35.587 145.781,36.342 144.628 C 36.703 144.078,40.614 141.952,41.266 141.952 C 41.426 141.952,41.847 141.339,42.201 140.590 C 42.555 139.842,43.415 138.615,44.112 137.865 C 45.380 136.502,45.610 136.020,46.585 132.700 C 47.307 130.242,47.576 129.186,48.025 127.048 L 48.414 125.199 47.630 122.992 C 47.200 121.779,46.543 119.531,46.171 117.997 C 45.407 114.847,45.291 114.610,44.233 114.037 C 43.815 113.810,43.215 113.126,42.900 112.516 C 42.491 111.723,41.987 111.226,41.134 110.772 C 40.437 110.400,39.646 109.696,39.229 109.076 C 38.380 107.812,38.734 107.935,33.207 106.980 C 28.634 106.189,27.238 106.108,24.842 106.494 M94.045 107.262 L 93.283 108.314 93.283 126.760 L 93.283 145.206 94.136 145.733 L 94.990 146.261 241.747 146.261 L 388.505 146.261 389.056 145.674 L 389.607 145.088 389.607 126.634 L 389.607 108.181 389.053 107.195 L 388.500 106.210 241.653 106.210 L 94.807 106.210 94.045 107.262 M94.106 191.317 L 93.283 191.727 93.283 210.093 C 93.283 230.348,93.348 231.444,94.585 232.084 C 95.449 232.531,387.754 232.642,388.588 232.195 C 389.529 231.692,389.607 230.041,389.607 210.536 L 389.607 191.693 388.982 191.284 C 388.020 190.653,95.374 190.686,94.106 191.317 M23.639 191.439 C 22.074 191.647,21.681 191.804,20.977 192.505 C 20.386 193.095,19.453 193.561,17.684 194.149 C 15.431 194.898,15.155 195.062,14.511 196.027 C 14.092 196.654,13.317 197.343,12.607 197.719 C 11.948 198.067,11.408 198.432,11.408 198.529 C 11.404 199.372,9.652 203.299,8.917 204.113 C 6.746 206.516,6.726 216.303,8.886 218.991 C 9.295 219.499,10.071 221.052,10.612 222.442 C 11.546 224.843,11.656 225.004,12.832 225.692 C 13.512 226.090,14.696 227.012,15.464 227.742 C 16.425 228.656,17.331 229.237,18.379 229.612 C 19.215 229.912,20.241 230.348,20.659 230.581 C 22.750 231.746,23.376 231.935,25.767 232.123 C 29.423 232.411,32.034 232.177,32.758 231.496 C 33.478 230.820,35.853 229.753,37.166 229.515 C 38.474 229.279,38.987 228.998,40.092 227.910 C 40.603 227.407,41.495 226.606,42.073 226.128 C 42.652 225.651,43.304 224.909,43.523 224.481 C 43.742 224.052,44.278 223.352,44.713 222.925 C 45.369 222.281,45.602 221.712,46.082 219.587 C 46.399 218.178,46.921 216.531,47.241 215.927 C 47.985 214.521,48.528 211.837,48.194 211.213 C 47.883 210.631,46.834 206.823,46.258 204.183 C 45.643 201.364,45.413 200.823,44.576 200.227 C 44.174 199.941,43.681 199.389,43.481 199.001 C 42.518 197.139,39.258 194.402,37.476 193.960 C 36.827 193.799,35.458 193.217,34.434 192.665 C 31.679 191.182,28.395 190.809,23.639 191.439 " stroke="none" fill="#f8f8f8" fill-rule="evenodd"></path><path id="path1" d="M26.109 17.225 C 25.621 17.326,24.766 17.647,24.208 17.937 C 23.525 18.293,22.282 18.559,20.406 18.752 C 17.165 19.086,16.017 19.549,15.407 20.771 C 15.079 21.429,14.669 21.757,13.743 22.103 C 12.791 22.457,12.384 22.792,11.940 23.582 C 11.624 24.144,11.061 24.792,10.689 25.023 C 9.429 25.804,8.867 26.453,8.603 27.434 C 8.435 28.059,8.138 28.490,7.782 28.626 C 7.163 28.863,6.554 29.491,6.107 30.355 C 5.729 31.087,4.982 41.083,5.194 42.586 C 5.282 43.213,5.450 45.107,5.567 46.795 C 5.799 50.154,6.039 50.846,7.553 52.521 C 8.067 53.090,8.830 54.252,9.250 55.104 C 9.979 56.585,10.360 56.934,12.346 57.939 C 12.514 58.024,12.876 58.475,13.152 58.942 C 13.871 60.161,15.100 60.702,18.314 61.215 C 18.981 61.321,19.586 61.693,20.344 62.462 C 22.635 64.786,33.538 64.797,35.857 62.479 C 36.438 61.897,37.247 61.472,38.455 61.112 C 40.221 60.586,41.116 59.917,41.427 58.890 C 41.530 58.550,41.879 58.274,42.332 58.175 C 43.446 57.930,44.314 57.119,44.645 56.014 C 44.879 55.235,45.119 54.962,45.761 54.750 C 46.903 54.374,47.339 53.803,47.673 52.246 C 47.895 51.211,48.213 50.645,49.047 49.799 C 51.806 47.000,51.670 32.405,48.867 30.568 C 48.477 30.313,48.044 29.551,47.664 28.456 C 46.954 26.404,46.801 26.190,45.662 25.645 C 45.076 25.364,44.688 24.948,44.506 24.406 C 44.130 23.283,43.533 22.752,42.144 22.307 C 41.222 22.011,40.852 21.724,40.481 21.017 C 39.858 19.828,38.938 19.312,37.107 19.125 C 34.489 18.858,32.841 18.467,32.319 17.987 C 31.384 17.128,28.368 16.758,26.109 17.225 M93.409 17.497 C 90.884 18.751,90.359 19.154,89.791 20.279 L 89.214 21.420 89.284 40.684 L 89.354 59.949 89.987 61.216 C 90.727 62.695,91.786 63.479,93.558 63.859 C 95.281 64.229,388.054 64.244,389.383 63.874 C 390.789 63.484,391.922 62.599,392.768 61.232 L 393.536 59.989 393.605 40.434 L 393.675 20.879 393.090 20.008 C 392.768 19.530,391.842 18.682,391.032 18.124 L 389.560 17.110 241.991 17.052 C 95.228 16.994,94.418 16.997,93.409 17.497 M32.603 19.400 C 36.266 20.033,37.738 20.532,38.897 21.535 C 39.480 22.040,40.578 22.766,41.337 23.151 C 42.194 23.584,42.952 24.205,43.338 24.789 C 43.679 25.306,44.484 26.299,45.125 26.996 C 45.886 27.823,46.580 28.969,47.121 30.292 C 47.577 31.407,48.282 32.967,48.686 33.759 C 50.376 37.065,50.265 42.904,48.431 47.225 C 47.886 48.507,47.253 50.212,47.023 51.014 C 46.679 52.214,46.383 52.659,45.348 53.532 C 44.656 54.115,43.856 54.972,43.569 55.437 C 43.282 55.901,42.515 56.646,41.866 57.093 C 41.217 57.540,40.286 58.324,39.798 58.836 C 39.065 59.604,38.444 59.908,36.248 60.576 C 34.785 61.021,33.131 61.556,32.573 61.764 C 31.982 61.984,30.226 62.202,28.366 62.285 L 25.172 62.427 21.088 61.090 C 18.842 60.355,16.686 59.541,16.297 59.281 C 12.528 56.762,10.373 54.680,9.379 52.598 C 8.972 51.745,8.390 50.826,8.085 50.555 C 5.429 48.196,5.446 33.226,8.108 30.318 C 8.631 29.746,9.295 28.813,9.582 28.245 C 9.869 27.678,10.616 26.794,11.242 26.281 C 11.867 25.768,12.628 24.946,12.933 24.453 C 13.237 23.961,13.955 23.319,14.529 23.026 C 15.103 22.733,16.049 22.003,16.632 21.403 C 18.537 19.444,26.832 18.403,32.603 19.400 M389.592 19.510 C 391.764 20.619,391.635 19.322,391.635 40.094 L 391.635 58.456 390.974 59.782 C 390.582 60.569,389.939 61.363,389.394 61.733 L 388.475 62.357 241.551 62.357 L 94.626 62.357 93.542 61.629 C 92.946 61.229,92.130 60.413,91.729 59.817 L 91.001 58.732 91.001 40.060 L 91.001 21.388 91.698 20.721 C 92.082 20.355,92.909 19.823,93.536 19.539 L 94.677 19.023 241.645 19.017 C 387.345 19.011,388.622 19.016,389.592 19.510 M23.882 102.671 C 21.168 102.956,20.817 103.089,19.656 104.284 C 18.771 105.195,18.387 105.400,17.299 105.545 C 15.113 105.834,12.928 107.004,12.928 107.883 C 12.928 108.214,12.137 108.896,10.658 109.839 C 9.978 110.273,9.604 110.836,8.982 112.366 C 8.424 113.738,7.872 114.621,7.159 115.279 C 5.663 116.660,5.119 119.980,5.260 126.869 C 5.402 133.873,5.979 136.489,7.605 137.516 C 8.349 137.986,8.612 138.361,8.845 139.289 C 9.008 139.936,9.394 140.685,9.704 140.953 C 10.797 141.901,11.794 142.927,12.383 143.710 C 12.778 144.235,13.356 144.603,14.094 144.801 C 14.707 144.965,15.209 145.231,15.209 145.392 C 15.209 146.766,16.712 147.452,20.761 147.926 C 23.187 148.209,24.051 148.411,24.449 148.784 C 25.673 149.934,28.496 150.082,30.271 149.090 C 31.214 148.563,32.203 148.286,33.967 148.056 C 38.861 147.419,39.747 147.100,40.295 145.776 C 40.595 145.051,40.937 144.813,42.659 144.127 C 43.447 143.813,43.731 143.492,44.237 142.347 C 44.681 141.345,45.029 140.907,45.471 140.796 C 46.722 140.482,47.661 138.833,48.044 136.278 C 48.187 135.327,48.365 135.038,49.061 134.627 C 50.720 133.649,50.824 133.163,50.824 126.362 C 50.824 119.278,50.689 118.564,49.057 116.977 C 48.226 116.170,47.922 115.652,47.781 114.803 C 47.533 113.309,47.286 112.875,45.911 111.522 C 45.267 110.888,44.533 110.059,44.281 109.679 C 43.983 109.231,43.430 108.884,42.706 108.690 C 41.811 108.451,41.560 108.257,41.441 107.713 C 41.204 106.636,40.319 106.023,38.358 105.577 C 37.014 105.272,36.438 105.011,36.153 104.576 C 35.022 102.848,29.845 102.045,23.882 102.671 M93.256 102.756 C 89.118 103.647,89.227 102.999,89.227 126.736 L 89.227 145.393 89.797 146.524 C 90.356 147.633,91.257 148.301,93.718 149.434 C 94.436 149.765,112.237 149.810,241.681 149.810 L 388.829 149.810 389.662 149.096 C 390.120 148.703,390.917 148.127,391.434 147.814 C 391.951 147.502,392.668 146.898,393.027 146.471 L 393.680 145.695 393.608 125.762 C 393.528 103.677,393.625 104.912,391.880 103.669 C 390.002 102.332,399.757 102.413,241.572 102.432 C 127.897 102.446,94.355 102.520,93.256 102.756 M32.826 104.875 C 33.802 105.297,35.593 105.901,36.807 106.215 C 38.883 106.754,40.558 107.780,40.558 108.514 C 40.558 108.633,41.179 109.127,41.938 109.613 C 42.698 110.099,43.518 110.815,43.762 111.205 C 44.005 111.595,44.737 112.427,45.388 113.054 C 46.364 113.995,46.670 114.525,47.132 116.069 C 47.440 117.100,48.157 118.832,48.726 119.919 L 49.760 121.894 49.785 125.142 C 49.822 129.980,49.571 131.546,48.546 132.872 C 48.081 133.474,47.471 134.669,47.192 135.528 C 46.522 137.588,46.258 138.062,45.022 139.426 C 44.449 140.058,43.615 141.108,43.169 141.760 C 42.644 142.526,41.927 143.163,41.138 143.562 C 40.467 143.902,39.297 144.647,38.538 145.218 C 34.164 148.505,20.620 148.504,16.822 145.217 C 16.188 144.669,15.220 143.990,14.670 143.710 C 14.119 143.429,13.360 142.763,12.982 142.230 C 12.603 141.697,11.873 140.958,11.359 140.588 C 10.729 140.133,10.165 139.359,9.625 138.208 C 9.185 137.270,8.557 136.217,8.229 135.868 C 5.429 132.896,5.256 119.438,7.981 116.603 C 8.450 116.115,9.114 115.089,9.458 114.322 C 10.916 111.069,15.117 107.350,18.593 106.234 C 19.869 105.825,21.882 105.132,23.067 104.696 C 26.060 103.593,30.034 103.666,32.826 104.875 M389.633 104.504 C 391.614 105.826,391.616 105.850,391.626 126.787 L 391.635 145.208 390.969 145.999 C 390.603 146.434,389.866 147.013,389.332 147.286 C 388.370 147.777,386.768 147.782,241.518 147.776 L 94.677 147.771 93.536 147.255 C 92.909 146.971,92.082 146.438,91.698 146.072 L 91.001 145.406 91.006 126.632 L 91.010 107.858 91.710 106.468 C 92.209 105.476,92.698 104.915,93.416 104.508 L 94.423 103.937 241.597 103.933 L 388.772 103.929 389.633 104.504 M22.814 189.097 C 19.259 189.287,18.197 189.660,16.844 191.198 C 16.307 191.808,15.644 192.201,14.671 192.484 C 13.145 192.927,12.494 193.477,12.202 194.570 C 12.059 195.107,11.761 195.361,10.969 195.625 C 9.786 196.020,9.356 196.568,8.885 198.282 C 8.632 199.204,8.356 199.598,7.686 199.993 C 5.275 201.416,4.357 211.552,5.861 220.141 C 6.206 222.113,6.681 222.988,7.747 223.617 C 8.435 224.023,8.701 224.414,9.008 225.469 C 9.441 226.961,9.828 227.398,11.217 227.972 C 11.773 228.202,12.167 228.538,12.167 228.783 C 12.167 229.326,13.767 230.925,14.309 230.925 C 15.017 230.925,16.315 231.709,17.041 232.575 C 18.218 233.981,19.368 234.282,24.208 234.452 C 33.319 234.772,36.961 234.255,37.862 232.512 C 38.167 231.922,38.514 231.712,39.591 231.467 C 41.557 231.019,43.098 230.152,43.603 229.210 C 44.245 228.013,44.603 227.646,45.640 227.116 C 46.655 226.599,47.419 225.285,47.958 223.132 C 48.124 222.469,48.568 221.584,48.943 221.166 C 50.700 219.211,51.052 217.296,50.891 210.588 C 50.753 204.815,50.649 204.377,49.080 202.915 C 48.148 202.047,47.970 201.715,47.839 200.601 C 47.605 198.612,46.771 197.069,45.564 196.393 C 44.890 196.015,44.317 195.406,43.895 194.619 C 43.176 193.279,42.169 192.674,39.765 192.139 C 38.533 191.865,38.283 191.706,37.937 190.979 C 37.041 189.102,32.746 188.567,22.814 189.097 M92.972 189.120 C 88.909 189.718,89.196 187.945,89.282 211.900 C 89.364 235.115,89.139 233.118,91.782 234.094 C 93.150 234.599,93.783 234.601,241.445 234.601 L 389.734 234.601 391.185 233.921 C 393.873 232.661,393.661 234.584,393.662 211.490 L 393.663 191.420 393.030 190.668 C 392.682 190.255,391.912 189.704,391.319 189.445 C 390.151 188.934,96.412 188.615,92.972 189.120 M31.955 190.128 C 34.733 190.413,35.167 190.560,36.409 191.639 C 36.847 192.018,38.040 192.648,39.061 193.038 C 42.249 194.257,45.976 198.394,47.175 202.048 C 47.468 202.943,47.978 204.135,48.306 204.696 C 50.178 207.891,50.383 215.253,48.670 217.744 C 48.430 218.093,47.870 219.479,47.425 220.825 C 45.983 225.185,42.368 229.176,38.535 230.639 C 37.403 231.071,36.112 231.697,35.666 232.030 C 33.298 233.797,23.484 234.269,20.579 232.757 C 17.001 230.894,14.671 229.469,13.688 228.545 C 13.061 227.954,12.117 227.157,11.591 226.773 C 10.929 226.289,10.314 225.435,9.593 224.000 C 9.021 222.860,8.328 221.641,8.055 221.293 C 5.267 217.735,5.391 205.400,8.250 201.974 C 8.565 201.596,9.091 200.582,9.418 199.720 C 9.745 198.859,10.355 197.833,10.773 197.440 C 11.191 197.048,12.218 196.046,13.054 195.214 C 14.221 194.054,14.989 193.541,16.350 193.014 C 17.326 192.636,18.523 192.019,19.011 191.642 C 19.499 191.265,20.184 190.803,20.532 190.614 C 21.782 189.939,27.670 189.688,31.955 190.128 M389.679 190.208 C 390.127 190.399,390.757 190.841,391.078 191.189 L 391.661 191.822 391.585 211.437 C 391.498 233.558,391.630 232.166,389.534 233.181 L 388.433 233.714 241.774 233.714 C 81.017 233.714,93.760 233.832,91.857 232.315 L 91.128 231.734 91.055 211.738 L 90.981 191.742 91.573 191.186 C 91.898 190.881,92.616 190.465,93.167 190.263 C 94.637 189.725,388.416 189.670,389.679 190.208 " stroke="none" fill="#444444" fill-rule="evenodd"></path><path id="path2" d="M22.898 19.405 C 18.643 19.869,17.890 20.109,16.632 21.403 C 16.049 22.003,15.103 22.733,14.529 23.026 C 13.955 23.319,13.237 23.961,12.933 24.453 C 12.628 24.946,11.867 25.768,11.242 26.281 C 10.616 26.794,9.869 27.678,9.582 28.245 C 9.295 28.813,8.631 29.746,8.108 30.318 C 5.446 33.226,5.429 48.196,8.085 50.555 C 8.390 50.826,8.972 51.745,9.379 52.598 C 10.373 54.680,12.528 56.762,16.297 59.281 C 16.686 59.541,18.842 60.355,21.088 61.090 L 25.172 62.427 28.366 62.285 C 30.226 62.202,31.982 61.984,32.573 61.764 C 33.131 61.556,34.785 61.021,36.248 60.576 C 38.444 59.908,39.065 59.604,39.798 58.836 C 40.286 58.324,41.217 57.540,41.866 57.093 C 42.515 56.646,43.282 55.901,43.569 55.437 C 43.856 54.972,44.656 54.115,45.348 53.532 C 46.383 52.659,46.679 52.214,47.023 51.014 C 47.253 50.212,47.886 48.507,48.431 47.225 C 50.265 42.904,50.376 37.065,48.686 33.759 C 48.282 32.967,47.577 31.407,47.121 30.292 C 46.580 28.969,45.886 27.823,45.125 26.996 C 44.484 26.299,43.679 25.306,43.338 24.789 C 42.952 24.205,42.194 23.584,41.337 23.151 C 40.578 22.766,39.480 22.040,38.897 21.535 C 36.474 19.438,30.220 18.605,22.898 19.405 M93.536 19.539 C 92.909 19.823,92.082 20.355,91.698 20.721 L 91.001 21.388 91.001 40.060 L 91.001 58.732 91.729 59.817 C 92.130 60.413,92.946 61.229,93.542 61.629 L 94.626 62.357 241.551 62.357 L 388.475 62.357 389.394 61.733 C 389.939 61.363,390.582 60.569,390.974 59.782 L 391.635 58.456 391.635 40.094 C 391.635 19.322,391.764 20.619,389.592 19.510 C 388.622 19.016,387.345 19.011,241.645 19.017 L 94.677 19.023 93.536 19.539 M33.207 20.889 C 35.512 21.309,35.875 21.450,36.651 22.225 C 37.234 22.809,40.239 24.379,41.305 24.658 C 41.617 24.740,42.021 25.257,42.323 25.960 C 42.598 26.602,43.325 27.668,43.938 28.329 C 45.741 30.272,45.977 30.897,47.657 38.209 L 48.428 41.564 47.821 42.772 C 47.199 44.009,46.749 45.640,45.982 49.430 C 45.506 51.787,45.378 52.008,44.092 52.697 C 43.612 52.954,42.930 53.659,42.576 54.264 C 42.129 55.026,41.548 55.561,40.679 56.008 C 39.988 56.365,39.161 57.052,38.835 57.541 C 36.610 60.880,20.136 60.954,16.868 57.639 C 16.265 57.027,15.580 56.527,15.346 56.527 C 14.566 56.527,10.710 52.380,10.392 51.200 C 10.235 50.619,9.674 49.670,9.145 49.090 C 6.695 46.407,6.768 35.665,9.261 31.939 C 9.867 31.033,10.574 29.795,10.830 29.188 C 11.125 28.490,11.662 27.836,12.287 27.412 C 12.831 27.042,13.569 26.239,13.927 25.628 C 14.284 25.016,14.748 24.436,14.957 24.339 C 16.898 23.438,17.424 23.086,17.867 22.391 C 18.890 20.784,27.829 19.909,33.207 20.889 M389.020 21.083 L 389.607 21.635 389.599 40.158 L 389.591 58.682 388.978 59.379 L 388.364 60.076 241.659 60.076 L 94.954 60.076 94.119 59.266 L 93.283 58.456 93.283 40.026 L 93.283 21.596 94.106 21.068 L 94.930 20.541 241.682 20.537 L 388.434 20.532 389.020 21.083 M23.067 104.696 C 21.882 105.132,19.869 105.825,18.593 106.234 C 15.117 107.350,10.916 111.069,9.458 114.322 C 9.114 115.089,8.450 116.115,7.981 116.603 C 5.256 119.438,5.429 132.896,8.229 135.868 C 8.557 136.217,9.185 137.270,9.625 138.208 C 10.165 139.359,10.729 140.133,11.359 140.588 C 11.873 140.958,12.603 141.697,12.982 142.230 C 13.360 142.763,14.119 143.429,14.670 143.710 C 15.220 143.990,16.188 144.669,16.822 145.217 C 18.178 146.390,18.839 146.632,22.053 147.127 C 29.350 148.250,35.441 147.545,38.538 145.218 C 39.297 144.647,40.467 143.902,41.138 143.562 C 41.927 143.163,42.644 142.526,43.169 141.760 C 43.615 141.108,44.449 140.058,45.022 139.426 C 46.258 138.062,46.522 137.588,47.192 135.528 C 47.471 134.669,48.081 133.474,48.546 132.872 C 49.571 131.546,49.822 129.980,49.785 125.142 L 49.760 121.894 48.726 119.919 C 48.157 118.832,47.440 117.100,47.132 116.069 C 46.670 114.525,46.364 113.995,45.388 113.054 C 44.737 112.427,44.005 111.595,43.762 111.205 C 43.518 110.815,42.698 110.099,41.938 109.613 C 41.179 109.127,40.558 108.633,40.558 108.514 C 40.558 107.780,38.883 106.754,36.807 106.215 C 35.593 105.901,33.802 105.297,32.826 104.875 C 30.034 103.666,26.060 103.593,23.067 104.696 M93.416 104.508 C 92.698 104.915,92.209 105.476,91.710 106.468 L 91.010 107.858 91.006 126.632 L 91.001 145.406 91.698 146.072 C 92.082 146.438,92.909 146.971,93.536 147.255 L 94.677 147.771 241.518 147.776 C 386.768 147.782,388.370 147.777,389.332 147.286 C 389.866 147.013,390.603 146.434,390.969 145.999 L 391.635 145.208 391.626 126.787 C 391.616 105.850,391.614 105.826,389.633 104.504 L 388.772 103.929 241.597 103.933 L 94.423 103.937 93.416 104.508 M33.207 106.980 C 38.734 107.935,38.380 107.812,39.229 109.076 C 39.646 109.696,40.437 110.400,41.134 110.772 C 41.987 111.226,42.491 111.723,42.900 112.516 C 43.215 113.126,43.815 113.810,44.233 114.037 C 45.291 114.610,45.407 114.847,46.171 117.997 C 46.543 119.531,47.200 121.779,47.630 122.992 L 48.414 125.199 48.025 127.048 C 47.576 129.186,47.307 130.242,46.585 132.700 C 45.610 136.020,45.380 136.502,44.112 137.865 C 43.415 138.615,42.555 139.842,42.201 140.590 C 41.847 141.339,41.426 141.952,41.266 141.952 C 40.614 141.952,36.703 144.078,36.342 144.628 C 35.587 145.781,30.801 146.435,25.222 146.149 C 21.091 145.937,20.325 145.733,18.847 144.454 C 18.192 143.887,17.134 143.192,16.496 142.908 C 15.858 142.625,15.170 142.313,14.967 142.215 C 14.764 142.118,14.349 141.590,14.044 141.044 C 13.732 140.484,13.023 139.775,12.417 139.417 C 11.459 138.851,11.270 138.572,10.644 136.795 C 10.189 135.506,9.632 134.482,9.057 133.880 C 7.645 132.402,7.578 132.125,7.432 127.168 C 7.257 121.183,7.600 119.278,9.118 117.819 C 9.676 117.283,10.207 116.533,10.298 116.153 C 10.695 114.501,11.886 113.111,16.287 109.169 C 17.777 107.834,17.871 107.794,20.829 107.224 C 27.130 106.008,27.540 106.000,33.207 106.980 M389.053 107.195 L 389.607 108.181 389.607 126.634 L 389.607 145.088 389.056 145.674 L 388.505 146.261 241.747 146.261 L 94.990 146.261 94.136 145.733 L 93.283 145.206 93.283 126.760 L 93.283 108.314 94.045 107.262 L 94.807 106.210 241.653 106.210 L 388.500 106.210 389.053 107.195 M22.940 190.103 C 21.076 190.280,20.464 190.520,19.011 191.642 C 18.523 192.019,17.326 192.636,16.350 193.014 C 14.989 193.541,14.221 194.054,13.054 195.214 C 12.218 196.046,11.191 197.048,10.773 197.440 C 10.355 197.833,9.745 198.859,9.418 199.720 C 9.091 200.582,8.565 201.596,8.250 201.974 C 5.391 205.400,5.267 217.735,8.055 221.293 C 8.328 221.641,9.021 222.860,9.593 224.000 C 10.314 225.435,10.929 226.289,11.591 226.773 C 12.117 227.157,13.061 227.954,13.688 228.545 C 14.671 229.469,17.001 230.894,20.579 232.757 C 23.484 234.269,33.298 233.797,35.666 232.030 C 36.112 231.697,37.403 231.071,38.535 230.639 C 42.368 229.176,45.983 225.185,47.425 220.825 C 47.870 219.479,48.430 218.093,48.670 217.744 C 50.383 215.253,50.178 207.891,48.306 204.696 C 47.978 204.135,47.468 202.943,47.175 202.048 C 45.976 198.394,42.249 194.257,39.061 193.038 C 38.040 192.648,36.847 192.018,36.409 191.639 C 35.167 190.560,34.733 190.413,31.955 190.128 C 29.161 189.841,25.798 189.832,22.940 190.103 M93.167 190.263 C 92.616 190.465,91.898 190.881,91.573 191.186 L 90.981 191.742 91.055 211.738 L 91.128 231.734 91.857 232.315 C 93.760 233.832,81.017 233.714,241.774 233.714 L 388.433 233.714 389.534 233.181 C 391.630 232.166,391.498 233.558,391.585 211.437 L 391.661 191.822 391.078 191.189 C 390.757 190.841,390.127 190.399,389.679 190.208 C 388.416 189.670,94.637 189.725,93.167 190.263 M388.982 191.284 L 389.607 191.693 389.607 210.536 C 389.607 230.041,389.529 231.692,388.588 232.195 C 387.754 232.642,95.449 232.531,94.585 232.084 C 93.348 231.444,93.283 230.348,93.283 210.093 L 93.283 191.727 94.106 191.317 C 95.374 190.686,388.020 190.653,388.982 191.284 M30.925 191.398 C 31.972 191.566,33.252 192.029,34.434 192.665 C 35.458 193.217,36.827 193.799,37.476 193.960 C 39.258 194.402,42.518 197.139,43.481 199.001 C 43.681 199.389,44.174 199.941,44.576 200.227 C 45.413 200.823,45.643 201.364,46.258 204.183 C 46.834 206.823,47.883 210.631,48.194 211.213 C 48.528 211.837,47.985 214.521,47.241 215.927 C 46.921 216.531,46.399 218.178,46.082 219.587 C 45.602 221.712,45.369 222.281,44.713 222.925 C 44.278 223.352,43.742 224.052,43.523 224.481 C 43.304 224.909,42.652 225.651,42.073 226.128 C 41.495 226.606,40.603 227.407,40.092 227.910 C 38.987 228.998,38.474 229.279,37.166 229.515 C 35.853 229.753,33.478 230.820,32.758 231.496 C 32.034 232.177,29.423 232.411,25.767 232.123 C 23.376 231.935,22.750 231.746,20.659 230.581 C 20.241 230.348,19.215 229.912,18.379 229.612 C 17.331 229.237,16.425 228.656,15.464 227.742 C 14.696 227.012,13.512 226.090,12.832 225.692 C 11.656 225.004,11.546 224.843,10.612 222.442 C 10.071 221.052,9.295 219.499,8.886 218.991 C 6.726 216.303,6.746 206.516,8.917 204.113 C 9.652 203.299,11.404 199.372,11.408 198.529 C 11.408 198.432,11.948 198.067,12.607 197.719 C 13.317 197.343,14.092 196.654,14.511 196.027 C 15.155 195.062,15.431 194.898,17.684 194.149 C 19.453 193.561,20.386 193.095,20.977 192.505 C 22.184 191.303,27.007 190.766,30.925 191.398 " stroke="none" fill="#848484" fill-rule="evenodd"></path><path id="path3" d="M0.000 126.743 L 0.000 253.485 200.000 253.485 L 400.000 253.485 400.000 126.743 L 400.000 0.000 200.000 0.000 L 0.000 0.000 0.000 126.743 M30.672 17.259 C 31.299 17.403,32.041 17.731,32.319 17.987 C 32.841 18.467,34.489 18.858,37.107 19.125 C 38.938 19.312,39.858 19.828,40.481 21.017 C 40.852 21.724,41.222 22.011,42.144 22.307 C 43.533 22.752,44.130 23.283,44.506 24.406 C 44.688 24.948,45.076 25.364,45.662 25.645 C 46.801 26.190,46.954 26.404,47.664 28.456 C 48.044 29.551,48.477 30.313,48.867 30.568 C 50.485 31.629,50.824 33.248,50.824 39.924 C 50.824 47.208,50.650 48.173,49.047 49.799 C 48.213 50.645,47.895 51.211,47.673 52.246 C 47.339 53.803,46.903 54.374,45.761 54.750 C 45.119 54.962,44.879 55.235,44.645 56.014 C 44.314 57.119,43.446 57.930,42.332 58.175 C 41.879 58.274,41.530 58.550,41.427 58.890 C 41.116 59.917,40.221 60.586,38.455 61.112 C 37.247 61.472,36.438 61.897,35.857 62.479 C 33.538 64.797,22.635 64.786,20.344 62.462 C 19.586 61.693,18.981 61.321,18.314 61.215 C 15.100 60.702,13.871 60.161,13.152 58.942 C 12.876 58.475,12.514 58.024,12.346 57.939 C 10.360 56.934,9.979 56.585,9.250 55.104 C 8.830 54.252,8.067 53.090,7.553 52.521 C 6.039 50.846,5.799 50.154,5.567 46.795 C 5.450 45.107,5.282 43.213,5.194 42.586 C 4.982 41.083,5.729 31.087,6.107 30.355 C 6.554 29.491,7.163 28.863,7.782 28.626 C 8.138 28.490,8.435 28.059,8.603 27.434 C 8.867 26.453,9.429 25.804,10.689 25.023 C 11.061 24.792,11.624 24.144,11.940 23.582 C 12.384 22.792,12.791 22.457,13.743 22.103 C 14.669 21.757,15.079 21.429,15.407 20.771 C 16.017 19.549,17.165 19.086,20.406 18.752 C 22.282 18.559,23.525 18.293,24.208 17.937 C 25.967 17.021,28.489 16.756,30.672 17.259 M391.032 18.124 C 391.842 18.682,392.768 19.530,393.090 20.008 L 393.675 20.879 393.605 40.434 L 393.536 59.989 392.768 61.232 C 391.922 62.599,390.789 63.484,389.383 63.874 C 388.054 64.244,95.281 64.229,93.558 63.859 C 91.786 63.479,90.727 62.695,89.987 61.216 L 89.354 59.949 89.284 40.684 L 89.214 21.420 89.791 20.279 C 90.359 19.154,90.884 18.751,93.409 17.497 C 94.418 16.997,95.228 16.994,241.991 17.052 L 389.560 17.110 391.032 18.124 M31.169 102.670 C 33.783 102.945,35.520 103.609,36.153 104.576 C 36.438 105.011,37.014 105.272,38.358 105.577 C 40.319 106.023,41.204 106.636,41.441 107.713 C 41.560 108.257,41.811 108.451,42.706 108.690 C 43.430 108.884,43.983 109.231,44.281 109.679 C 44.533 110.059,45.267 110.888,45.911 111.522 C 47.286 112.875,47.533 113.309,47.781 114.803 C 47.922 115.652,48.226 116.170,49.057 116.977 C 50.689 118.564,50.824 119.278,50.824 126.362 C 50.824 133.163,50.720 133.649,49.061 134.627 C 48.365 135.038,48.187 135.327,48.044 136.278 C 47.661 138.833,46.722 140.482,45.471 140.796 C 45.029 140.907,44.681 141.345,44.237 142.347 C 43.731 143.492,43.447 143.813,42.659 144.127 C 40.937 144.813,40.595 145.051,40.295 145.776 C 39.747 147.100,38.861 147.419,33.967 148.056 C 32.203 148.286,31.214 148.563,30.271 149.090 C 28.496 150.082,25.673 149.934,24.449 148.784 C 24.051 148.411,23.187 148.209,20.761 147.926 C 16.712 147.452,15.209 146.766,15.209 145.392 C 15.209 145.231,14.707 144.965,14.094 144.801 C 13.356 144.603,12.778 144.235,12.383 143.710 C 11.794 142.927,10.797 141.901,9.704 140.953 C 9.394 140.685,9.008 139.936,8.845 139.289 C 8.612 138.361,8.349 137.986,7.605 137.516 C 5.979 136.489,5.402 133.873,5.260 126.869 C 5.119 119.980,5.663 116.660,7.159 115.279 C 7.872 114.621,8.424 113.738,8.982 112.366 C 9.604 110.836,9.978 110.273,10.658 109.839 C 12.137 108.896,12.928 108.214,12.928 107.883 C 12.928 107.004,15.113 105.834,17.299 105.545 C 18.387 105.400,18.771 105.195,19.656 104.284 C 20.817 103.089,21.168 102.956,23.882 102.671 C 26.592 102.386,28.477 102.386,31.169 102.670 M389.785 102.765 C 391.391 103.193,392.512 103.958,393.096 105.026 C 393.501 105.767,393.542 107.405,393.608 125.762 L 393.680 145.695 393.027 146.471 C 392.668 146.898,391.951 147.502,391.434 147.814 C 390.917 148.127,390.120 148.703,389.662 149.096 L 388.829 149.810 241.681 149.810 C 112.237 149.810,94.436 149.765,93.718 149.434 C 91.257 148.301,90.356 147.633,89.797 146.524 L 89.227 145.393 89.227 126.736 C 89.227 102.999,89.118 103.647,93.256 102.756 C 95.513 102.271,387.959 102.279,389.785 102.765 M32.193 189.073 C 36.340 189.289,37.279 189.600,37.937 190.979 C 38.283 191.706,38.533 191.865,39.765 192.139 C 42.169 192.674,43.176 193.279,43.895 194.619 C 44.317 195.406,44.890 196.015,45.564 196.393 C 46.771 197.069,47.605 198.612,47.839 200.601 C 47.970 201.715,48.148 202.047,49.080 202.915 C 50.649 204.377,50.753 204.815,50.891 210.588 C 51.052 217.296,50.700 219.211,48.943 221.166 C 48.568 221.584,48.124 222.469,47.958 223.132 C 47.419 225.285,46.655 226.599,45.640 227.116 C 44.603 227.646,44.245 228.013,43.603 229.210 C 43.098 230.152,41.557 231.019,39.591 231.467 C 38.514 231.712,38.167 231.922,37.862 232.512 C 36.961 234.255,33.319 234.772,24.208 234.452 C 19.368 234.282,18.218 233.981,17.041 232.575 C 16.315 231.709,15.017 230.925,14.309 230.925 C 13.767 230.925,12.167 229.326,12.167 228.783 C 12.167 228.538,11.773 228.202,11.217 227.972 C 9.828 227.398,9.441 226.961,9.008 225.469 C 8.701 224.414,8.435 224.023,7.747 223.617 C 6.681 222.988,6.206 222.113,5.861 220.141 C 4.357 211.552,5.275 201.416,7.686 199.993 C 8.356 199.598,8.632 199.204,8.885 198.282 C 9.356 196.568,9.786 196.020,10.969 195.625 C 11.761 195.361,12.059 195.107,12.202 194.570 C 12.494 193.477,13.145 192.927,14.671 192.484 C 15.644 192.201,16.307 191.808,16.844 191.198 C 18.197 189.660,19.259 189.287,22.814 189.097 C 27.270 188.859,28.052 188.857,32.193 189.073 M391.319 189.445 C 391.912 189.704,392.682 190.255,393.030 190.668 L 393.663 191.420 393.662 211.490 C 393.661 234.584,393.873 232.661,391.185 233.921 L 389.734 234.601 241.445 234.601 C 93.783 234.601,93.150 234.599,91.782 234.094 C 89.139 233.118,89.364 235.115,89.282 211.900 C 89.196 187.945,88.909 189.718,92.972 189.120 C 96.412 188.615,390.151 188.934,391.319 189.445 " stroke="none" fill="#040404" fill-rule="evenodd"></path><path id="path4" d="" stroke="none" fill="#402084" fill-rule="evenodd"></path></g></svg>