<svg id="svg" version="1.1" xmlns="http://www.w3.org/2000/svg" xmlns:xlink="http://www.w3.org/1999/xlink" width="400" height="236.0655737704918" viewBox="0, 0, 400,236.0655737704918"><g id="svgg"><path id="path0" d="M99.560 10.220 C 99.058 11.534,98.960 47.390,99.457 47.887 C 99.848 48.278,388.217 48.302,389.339 47.911 L 390.083 47.652 390.083 29.539 L 390.083 11.427 389.379 10.318 L 388.676 9.209 244.311 9.209 L 99.946 9.209 99.560 10.220 M32.822 9.815 C 32.497 9.869,31.328 10.031,30.224 10.177 C 27.186 10.577,24.472 11.266,24.203 11.707 C 23.555 12.768,22.985 13.302,21.999 13.771 C 21.338 14.086,20.671 14.652,20.282 15.230 C 19.931 15.750,19.188 16.499,18.630 16.894 C 17.738 17.528,17.569 17.797,17.227 19.138 C 16.672 21.314,15.852 23.081,15.138 23.643 L 14.522 24.128 14.522 27.829 L 14.522 31.530 15.297 32.701 C 15.724 33.345,16.378 34.831,16.750 36.003 C 17.728 39.086,18.034 39.699,19.170 40.847 C 19.730 41.414,20.508 42.400,20.897 43.039 C 21.550 44.108,21.755 44.254,23.495 44.894 C 26.116 45.859,27.315 46.485,27.718 47.099 C 28.261 47.928,30.898 48.278,35.140 48.084 C 39.892 47.867,40.456 47.732,41.447 46.574 C 41.893 46.052,42.552 45.552,42.912 45.462 C 44.389 45.092,45.735 44.344,46.131 43.674 C 46.358 43.290,46.639 42.975,46.755 42.975 C 47.085 42.975,48.650 41.283,49.047 40.496 C 49.244 40.106,49.871 39.353,50.440 38.821 C 51.010 38.290,51.476 37.652,51.476 37.404 C 51.476 37.156,51.806 35.731,52.209 34.238 C 53.352 30.004,53.322 27.477,52.073 22.786 C 50.839 18.153,50.947 18.406,49.898 17.682 C 49.156 17.170,48.798 16.693,48.453 15.762 C 48.038 14.641,47.867 14.460,46.674 13.881 C 45.663 13.390,45.242 13.018,44.870 12.291 C 44.581 11.724,44.173 11.294,43.858 11.224 C 38.968 10.135,34.413 9.553,32.822 9.815 M32.349 93.065 C 30.287 93.218,29.516 93.407,29.516 93.758 C 29.516 94.163,27.402 95.182,25.917 95.492 C 23.990 95.896,23.460 96.240,21.133 98.600 C 17.741 102.041,17.608 102.241,16.978 104.881 C 16.469 107.009,16.048 107.928,15.063 109.059 L 14.371 109.854 14.446 113.346 C 14.521 116.779,14.533 116.849,15.148 117.419 C 15.994 118.202,16.472 119.184,16.991 121.206 C 17.578 123.496,17.862 124.052,18.692 124.542 C 19.081 124.772,19.589 125.273,19.822 125.656 C 20.055 126.039,20.870 126.808,21.634 127.364 C 22.398 127.920,23.170 128.653,23.351 128.992 C 23.744 129.731,23.657 129.694,27.509 130.744 C 32.744 132.172,35.431 132.069,42.695 130.163 C 44.098 129.795,44.501 129.581,44.845 129.023 C 45.415 128.099,46.008 127.599,47.054 127.162 C 47.704 126.890,48.078 126.501,48.513 125.641 C 49.051 124.581,49.592 124.004,50.638 123.377 C 50.902 123.218,51.217 122.262,51.595 120.474 C 51.905 119.007,52.377 117.453,52.644 117.022 C 53.372 115.843,53.364 110.501,52.631 109.095 C 52.357 108.569,51.943 107.052,51.712 105.722 C 51.197 102.767,51.169 102.696,50.284 102.191 C 49.893 101.968,49.390 101.439,49.167 101.017 C 48.736 100.202,47.761 99.183,46.524 98.255 C 46.110 97.944,45.678 97.445,45.564 97.145 C 45.322 96.508,44.419 96.000,43.104 95.762 C 41.965 95.555,40.793 94.971,39.586 94.008 C 38.355 93.027,36.362 92.767,32.349 93.065 M99.587 93.127 C 98.978 93.589,98.946 129.292,99.553 130.810 L 99.933 131.759 244.275 131.759 L 388.617 131.759 389.350 130.617 L 390.083 129.475 390.083 111.494 L 390.083 93.513 389.227 93.155 C 388.016 92.649,100.253 92.621,99.587 93.127 M29.162 178.040 C 27.085 178.220,26.034 178.552,25.825 179.097 C 25.610 179.658,23.514 181.092,22.308 181.503 C 21.377 181.820,21.144 182.030,20.779 182.882 C 20.318 183.957,19.545 184.816,18.761 185.123 C 18.113 185.376,16.660 188.368,16.184 190.429 C 15.975 191.334,15.533 192.556,15.202 193.145 C 14.041 195.209,14.212 200.319,15.505 202.176 C 15.873 202.706,16.558 204.303,17.026 205.724 C 17.825 208.154,17.932 208.340,18.797 208.818 C 19.462 209.186,19.880 209.670,20.307 210.568 C 20.813 211.633,21.049 211.865,21.960 212.202 C 23.169 212.648,23.986 213.300,24.450 214.192 C 25.466 216.145,42.739 216.377,42.739 214.437 C 42.739 214.093,45.702 212.260,46.767 211.946 C 47.648 211.686,47.779 211.544,48.148 210.453 C 48.565 209.223,49.582 207.684,50.345 207.129 C 52.042 205.893,53.644 196.983,52.695 194.055 C 52.429 193.234,52.088 191.712,51.938 190.673 C 51.606 188.374,51.214 187.398,50.413 186.873 C 49.708 186.411,48.381 184.486,47.824 183.117 C 47.486 182.286,47.212 182.062,45.548 181.256 C 44.508 180.752,43.221 179.933,42.688 179.436 C 41.587 178.410,41.445 178.368,37.898 178.043 C 35.083 177.784,32.135 177.784,29.162 178.040 M99.564 178.236 C 98.920 178.947,98.986 214.750,99.632 215.525 L 100.076 216.057 244.198 216.057 L 388.320 216.057 389.201 215.458 L 390.083 214.859 390.083 196.800 L 390.083 178.742 389.315 178.274 C 388.154 177.566,100.205 177.528,99.564 178.236 " stroke="none" fill="#c13b23" fill-rule="evenodd"></path><path id="path1" d="M99.157 6.842 C 98.017 7.445,97.842 7.695,97.163 9.692 L 96.576 11.417 96.576 29.629 L 96.576 47.841 97.344 48.584 C 97.766 48.992,98.506 49.491,98.989 49.693 C 100.401 50.282,387.693 50.249,390.135 49.660 C 391.301 49.378,391.991 49.059,392.471 48.579 L 393.152 47.898 393.152 28.063 L 393.152 8.228 392.499 7.575 C 391.240 6.316,398.570 6.375,244.087 6.386 C 103.315 6.396,99.981 6.407,99.157 6.842 M31.287 6.759 C 31.027 6.810,30.230 6.967,29.516 7.108 C 28.802 7.249,27.878 7.559,27.463 7.798 C 27.048 8.037,25.932 8.511,24.984 8.851 C 16.262 11.978,9.840 24.450,12.590 32.918 C 12.932 33.969,13.338 35.507,13.492 36.335 C 13.713 37.518,13.969 38.067,14.685 38.895 C 15.186 39.474,15.821 40.389,16.096 40.927 C 16.987 42.673,19.788 45.508,21.488 46.383 C 22.332 46.818,23.235 47.409,23.494 47.696 C 25.966 50.434,40.667 50.768,43.470 48.149 C 43.901 47.747,45.167 46.958,46.285 46.397 C 54.056 42.494,58.934 28.495,54.796 21.970 C 54.422 21.380,53.890 20.155,53.613 19.247 C 52.894 16.891,52.771 16.721,49.192 13.147 C 45.961 9.919,46.138 10.043,43.407 9.064 C 42.455 8.722,41.251 8.196,40.732 7.894 C 38.878 6.816,33.985 6.228,31.287 6.759 M390.311 7.689 L 391.932 8.057 392.082 9.991 C 392.165 11.054,392.200 20.000,392.161 29.870 L 392.090 47.816 390.673 48.524 L 389.256 49.233 244.597 49.292 L 99.938 49.352 98.788 48.584 L 97.639 47.816 97.578 29.702 L 97.518 11.589 98.119 9.990 C 98.450 9.111,98.948 8.151,99.225 7.856 L 99.728 7.320 244.209 7.320 C 374.293 7.320,388.852 7.357,390.311 7.689 M38.881 8.273 C 39.509 8.560,41.086 9.144,42.385 9.571 C 46.472 10.916,51.608 15.860,52.635 19.439 C 52.903 20.371,53.545 21.942,54.062 22.930 C 55.447 25.577,55.680 29.957,54.601 33.058 C 52.495 39.106,52.184 39.638,48.177 44.038 C 47.823 44.427,46.587 45.257,45.431 45.880 C 44.275 46.504,42.884 47.370,42.339 47.805 C 41.659 48.347,40.993 48.642,40.214 48.746 C 33.307 49.667,27.649 49.147,24.793 47.327 C 24.079 46.872,22.820 46.166,21.996 45.759 C 20.886 45.211,20.265 44.704,19.600 43.804 C 19.107 43.136,18.447 42.422,18.134 42.217 C 17.822 42.012,17.208 41.169,16.771 40.344 C 16.334 39.518,15.741 38.524,15.452 38.135 C 15.163 37.745,14.741 36.789,14.516 36.009 C 14.290 35.230,13.838 33.749,13.512 32.718 C 11.203 25.423,15.567 15.639,23.402 10.543 C 24.136 10.067,29.892 8.084,31.405 7.788 C 33.342 7.408,37.589 7.683,38.881 8.273 M29.181 91.643 C 26.675 92.008,24.986 92.554,23.876 93.357 C 23.277 93.791,22.267 94.445,21.633 94.812 C 19.982 95.765,16.530 99.268,15.589 100.945 C 15.151 101.724,14.610 102.601,14.386 102.895 C 14.161 103.188,13.801 104.223,13.585 105.195 C 13.369 106.166,12.921 107.626,12.589 108.439 C 11.304 111.588,12.514 119.981,14.720 123.219 C 15.045 123.695,15.689 124.720,16.151 125.496 C 17.552 127.848,21.008 130.807,23.419 131.719 C 24.499 132.127,25.893 132.825,26.514 133.268 C 29.050 135.076,39.929 135.040,41.869 133.217 C 42.342 132.772,43.094 132.398,46.009 131.158 C 48.662 130.030,53.332 124.401,53.837 121.722 C 53.998 120.869,54.384 119.797,54.694 119.340 C 56.180 117.150,56.236 116.902,56.155 112.906 L 56.080 109.209 55.168 107.320 C 54.666 106.281,54.015 104.666,53.721 103.731 C 52.664 100.364,48.155 95.331,45.217 94.237 C 44.439 93.947,43.536 93.464,43.211 93.163 C 41.469 91.549,34.789 90.825,29.181 91.643 M98.760 91.696 C 98.337 91.849,97.672 92.276,97.282 92.644 L 96.573 93.313 96.634 113.176 L 96.694 133.039 97.493 133.577 C 97.932 133.873,98.676 134.222,99.146 134.353 C 100.331 134.682,388.217 134.682,389.402 134.353 C 390.711 133.989,391.793 133.147,392.444 131.986 L 393.034 130.933 393.099 112.030 L 393.163 93.127 392.582 92.581 C 391.233 91.313,400.587 91.388,244.392 91.403 C 133.708 91.414,99.347 91.483,98.760 91.696 M39.669 92.457 C 40.593 92.674,41.541 93.088,42.051 93.497 C 42.517 93.870,43.621 94.503,44.505 94.904 C 47.933 96.458,52.284 101.491,53.007 104.739 C 53.246 105.816,53.748 107.103,54.270 107.978 L 55.136 109.430 55.212 112.920 L 55.288 116.410 54.562 117.485 C 53.447 119.138,53.198 119.717,52.888 121.373 C 52.353 124.241,48.218 129.034,44.941 130.586 C 44.054 131.006,42.586 131.702,41.677 132.134 C 37.545 134.095,29.537 134.291,27.244 132.487 C 26.933 132.243,25.659 131.648,24.412 131.164 C 22.527 130.434,21.881 130.040,20.577 128.824 C 19.714 128.019,18.686 127.138,18.292 126.865 C 17.497 126.314,14.928 121.405,13.809 118.300 C 13.232 116.697,13.168 116.193,13.138 112.987 L 13.105 109.445 14.328 106.342 C 17.099 99.315,19.664 96.469,25.856 93.554 C 28.880 92.131,35.904 91.573,39.669 92.457 M390.791 92.630 L 392.090 93.157 392.090 111.690 L 392.090 130.224 391.159 131.599 C 390.648 132.355,389.936 133.126,389.577 133.311 C 388.405 133.918,99.788 133.805,98.792 133.198 C 97.584 132.461,97.521 131.377,97.521 111.366 L 97.521 93.589 98.052 93.108 C 98.344 92.843,98.796 92.509,99.055 92.365 C 99.399 92.175,139.021 92.104,244.510 92.104 L 389.492 92.104 390.791 92.630 M32.113 175.550 C 26.540 176.386,24.090 177.101,22.823 178.262 C 22.283 178.756,21.289 179.499,20.613 179.913 C 19.937 180.326,19.174 181.004,18.916 181.419 C 18.658 181.833,17.962 182.577,17.368 183.071 C 16.774 183.566,16.080 184.380,15.825 184.880 C 15.569 185.380,14.933 186.283,14.411 186.886 C 13.889 187.490,13.407 188.217,13.340 188.502 C 11.615 195.836,11.885 202.289,14.076 206.104 C 14.423 206.708,14.960 207.680,15.269 208.264 C 15.579 208.849,16.393 209.858,17.080 210.508 C 17.766 211.157,18.561 212.025,18.848 212.437 C 19.134 212.849,19.911 213.520,20.574 213.928 C 21.237 214.336,22.037 214.976,22.352 215.350 C 23.208 216.368,24.711 216.869,31.877 218.526 L 34.593 219.155 36.246 218.696 C 37.155 218.444,39.321 217.849,41.059 217.374 C 44.692 216.382,44.879 216.300,46.198 215.095 C 46.738 214.604,47.616 213.978,48.150 213.706 C 48.684 213.433,49.442 212.762,49.833 212.213 C 50.225 211.665,50.916 210.818,51.368 210.331 C 52.632 208.969,55.477 202.886,55.864 200.720 C 56.581 196.700,56.080 192.435,54.577 189.763 C 54.201 189.095,53.760 188.123,53.597 187.603 C 53.112 186.060,52.278 184.580,51.467 183.825 C 51.049 183.436,50.353 182.572,49.922 181.906 C 49.387 181.082,48.738 180.468,47.886 179.982 C 47.198 179.590,46.271 178.889,45.827 178.424 C 44.830 177.382,43.904 177.075,39.045 176.172 C 36.949 175.783,34.983 175.416,34.677 175.357 C 34.371 175.298,33.217 175.385,32.113 175.550 M98.793 175.973 C 98.164 176.396,97.409 177.166,97.116 177.686 L 96.584 178.630 96.580 196.879 L 96.576 215.128 97.151 216.263 C 97.778 217.499,99.110 218.809,99.945 219.010 C 100.235 219.080,165.449 219.108,244.864 219.073 L 389.256 219.008 390.576 218.360 C 391.637 217.838,392.019 217.485,392.524 216.557 L 393.152 215.402 393.152 196.757 L 393.152 178.111 392.476 177.177 C 391.980 176.493,391.460 176.121,390.528 175.784 C 389.274 175.331,387.238 175.324,244.597 175.265 L 99.938 175.205 98.793 175.973 M38.279 176.872 C 42.046 177.429,43.985 178.024,44.906 178.906 C 45.262 179.247,46.219 179.962,47.034 180.495 C 47.848 181.028,48.729 181.815,48.992 182.244 C 49.254 182.673,49.929 183.576,50.492 184.251 C 51.690 185.687,52.471 187.142,53.290 189.467 C 53.615 190.390,54.184 191.995,54.554 193.034 C 56.100 197.375,54.151 205.600,50.662 209.462 C 50.222 209.949,49.734 210.596,49.577 210.900 C 49.126 211.774,48.381 212.507,47.107 213.330 C 46.458 213.750,45.591 214.410,45.180 214.796 C 44.286 215.638,42.255 216.288,37.855 217.141 L 34.711 217.750 31.228 217.247 C 26.192 216.519,22.904 215.498,22.904 214.662 C 22.904 214.555,22.453 214.168,21.901 213.801 C 16.712 210.354,12.989 203.247,12.987 196.790 C 12.987 194.430,14.297 188.451,14.973 187.732 C 15.283 187.401,15.840 186.647,16.211 186.054 C 17.199 184.477,20.531 180.915,21.488 180.412 C 21.942 180.173,22.800 179.549,23.394 179.025 C 25.915 176.802,31.928 175.932,38.279 176.872 M390.003 176.960 C 392.449 178.098,392.208 175.933,392.208 196.780 C 392.208 217.643,392.429 215.614,389.999 217.008 L 388.784 217.705 244.259 217.707 L 99.734 217.710 99.124 217.060 C 97.394 215.221,97.522 216.839,97.523 196.812 C 97.524 176.846,97.406 178.333,99.094 176.952 L 99.764 176.404 244.274 176.398 L 388.784 176.392 390.003 176.960 " stroke="none" fill="#54170f" fill-rule="evenodd"></path><path id="path2" d="M28.806 5.885 C 26.927 6.145,25.855 6.550,24.686 7.442 C 24.120 7.874,22.876 8.568,21.922 8.983 C 19.922 9.854,19.669 10.031,19.114 10.941 C 18.889 11.309,18.198 11.946,17.578 12.358 C 16.413 13.130,16.345 13.214,15.686 14.702 C 15.469 15.190,14.783 16.101,14.161 16.726 C 12.994 17.900,12.923 18.067,12.062 21.656 C 11.807 22.722,11.385 23.891,11.125 24.253 C 9.947 25.894,9.768 30.947,10.851 31.985 C 11.687 32.786,12.278 34.395,12.280 35.874 C 12.283 38.057,13.003 39.528,14.432 40.272 C 14.878 40.504,15.130 40.907,15.332 41.711 C 15.547 42.563,15.932 43.143,16.957 44.161 C 17.695 44.894,18.540 45.767,18.834 46.101 C 19.154 46.464,19.829 46.818,20.517 46.983 C 21.431 47.202,21.781 47.434,22.226 48.117 C 22.998 49.300,23.952 49.788,25.998 50.046 C 36.004 51.307,43.455 50.598,45.627 48.178 C 46.171 47.573,46.910 47.108,47.903 46.746 C 48.854 46.399,49.558 45.965,49.894 45.518 C 50.527 44.676,51.200 44.004,52.249 43.166 C 52.723 42.787,53.179 42.121,53.379 41.517 C 53.562 40.960,54.161 39.999,54.710 39.382 C 55.718 38.245,56.059 37.383,56.451 34.969 C 56.569 34.242,56.773 33.277,56.904 32.823 C 57.385 31.162,57.204 24.019,56.645 22.618 C 56.372 21.931,55.990 20.838,55.797 20.189 C 55.604 19.540,55.084 18.539,54.642 17.966 C 54.199 17.393,53.837 16.823,53.837 16.699 C 53.837 15.102,47.463 9.278,45.033 8.655 C 44.014 8.394,43.440 8.071,42.769 7.379 C 42.217 6.811,41.466 6.335,40.828 6.149 C 39.623 5.799,30.831 5.606,28.806 5.885 M98.347 5.994 C 97.290 6.455,95.453 8.820,95.035 10.258 C 94.728 11.314,94.687 14.032,94.742 29.768 L 94.805 48.052 95.315 48.767 C 95.596 49.160,96.339 49.744,96.968 50.066 L 98.111 50.649 243.447 50.711 C 386.071 50.771,391.099 50.748,392.581 50.022 C 394.330 49.165,394.207 50.729,394.280 28.377 C 394.354 5.887,394.438 7.036,392.646 6.122 C 391.493 5.534,99.693 5.408,98.347 5.994 M390.010 6.648 C 391.491 6.869,391.972 7.048,392.499 7.575 L 393.152 8.228 393.152 28.063 L 393.152 47.898 392.471 48.579 C 391.991 49.059,391.301 49.378,390.135 49.660 C 387.693 50.249,100.401 50.282,98.989 49.693 C 98.506 49.491,97.766 48.992,97.344 48.584 L 96.576 47.841 96.576 29.629 L 96.576 11.417 97.163 9.692 C 97.842 7.695,98.017 7.445,99.157 6.842 C 100.193 6.294,386.346 6.104,390.010 6.648 M38.380 6.978 C 39.154 7.180,40.213 7.592,40.732 7.894 C 41.251 8.196,42.455 8.722,43.407 9.064 C 46.138 10.043,45.961 9.919,49.192 13.147 C 52.771 16.721,52.894 16.891,53.613 19.247 C 53.890 20.155,54.422 21.380,54.796 21.970 C 58.934 28.495,54.056 42.494,46.285 46.397 C 45.167 46.958,43.901 47.747,43.470 48.149 C 40.667 50.768,25.966 50.434,23.494 47.696 C 23.235 47.409,22.332 46.818,21.488 46.383 C 19.788 45.508,16.987 42.673,16.096 40.927 C 15.821 40.389,15.186 39.474,14.685 38.895 C 13.969 38.067,13.713 37.518,13.492 36.335 C 13.338 35.507,12.932 33.969,12.590 32.918 C 9.840 24.450,16.262 11.978,24.984 8.851 C 25.932 8.511,27.048 8.037,27.463 7.798 C 27.878 7.559,28.802 7.249,29.516 7.108 C 30.230 6.967,31.027 6.810,31.287 6.759 C 32.595 6.502,37.083 6.640,38.380 6.978 M27.173 90.934 C 24.609 91.194,23.126 91.761,22.514 92.717 C 21.944 93.608,21.519 93.917,20.631 94.085 C 19.714 94.259,18.710 95.165,18.378 96.117 C 18.200 96.629,17.860 96.945,17.209 97.205 C 16.150 97.629,15.216 98.637,15.008 99.581 C 14.926 99.952,14.579 100.399,14.206 100.613 C 13.286 101.140,12.744 102.433,12.392 104.936 C 12.044 107.414,11.709 108.282,10.803 109.053 C 9.757 109.942,10.016 115.539,11.163 116.832 C 11.560 117.280,12.107 119.216,12.533 121.682 C 12.816 123.322,13.518 124.512,14.360 124.779 C 14.584 124.851,14.931 125.255,15.132 125.678 C 16.368 128.280,16.409 128.334,17.532 128.871 C 18.149 129.166,18.654 129.556,18.654 129.739 C 18.654 130.574,19.863 131.494,21.789 132.124 C 23.228 132.595,23.981 133.000,24.696 133.688 C 25.998 134.940,27.238 135.264,31.369 135.435 C 38.831 135.744,42.766 135.102,43.763 133.413 C 44.058 132.915,44.459 132.678,45.387 132.456 C 47.205 132.019,48.580 131.347,49.051 130.664 C 49.847 129.512,51.060 128.217,51.344 128.217 C 51.763 128.217,52.479 127.344,53.377 125.738 C 53.813 124.959,54.412 124.129,54.707 123.895 C 55.230 123.479,55.961 121.538,55.963 120.559 C 55.964 120.291,56.227 119.433,56.548 118.654 C 57.342 116.726,57.433 109.948,56.694 107.726 C 56.447 106.983,56.121 105.764,55.969 105.016 C 55.803 104.204,55.355 103.158,54.856 102.419 C 54.397 101.738,53.713 100.530,53.336 99.735 C 52.762 98.523,52.472 98.198,51.541 97.719 C 50.711 97.292,50.288 96.869,49.862 96.040 C 49.373 95.091,49.050 94.812,47.609 94.094 C 46.684 93.634,45.336 92.846,44.615 92.343 C 43.893 91.840,42.884 91.302,42.371 91.146 C 41.170 90.781,30.188 90.628,27.173 90.934 M98.138 90.935 C 96.821 91.245,95.533 92.030,95.079 92.798 C 94.435 93.888,94.485 132.488,95.132 133.549 C 95.685 134.455,96.738 134.966,98.709 135.286 C 100.832 135.630,387.693 135.634,389.816 135.290 C 394.494 134.531,394.333 135.373,394.332 111.586 C 394.331 90.932,394.437 92.202,392.631 91.216 C 391.756 90.738,100.155 90.460,98.138 90.935 M39.506 91.623 C 41.247 91.875,42.288 92.307,43.211 93.163 C 43.536 93.464,44.439 93.947,45.217 94.237 C 48.155 95.331,52.664 100.364,53.721 103.731 C 54.015 104.666,54.666 106.281,55.168 107.320 L 56.080 109.209 56.155 112.906 C 56.236 116.902,56.180 117.150,54.694 119.340 C 54.384 119.797,53.998 120.869,53.837 121.722 C 53.332 124.401,48.662 130.030,46.009 131.158 C 43.094 132.398,42.342 132.772,41.869 133.217 C 39.929 135.040,29.050 135.076,26.514 133.268 C 25.893 132.825,24.499 132.127,23.419 131.719 C 21.008 130.807,17.552 127.848,16.151 125.496 C 15.689 124.720,15.045 123.695,14.720 123.219 C 12.514 119.981,11.304 111.588,12.589 108.439 C 12.921 107.626,13.369 106.166,13.585 105.195 C 13.801 104.223,14.161 103.188,14.386 102.895 C 14.610 102.601,15.151 101.724,15.589 100.945 C 16.530 99.268,19.982 95.765,21.633 94.812 C 22.267 94.445,23.277 93.791,23.876 93.357 C 26.174 91.694,33.996 90.826,39.506 91.623 M390.628 91.712 C 391.383 91.889,392.262 92.280,392.582 92.581 L 393.163 93.127 393.099 112.030 L 393.034 130.933 392.444 131.986 C 391.793 133.147,390.711 133.989,389.402 134.353 C 388.217 134.682,100.331 134.682,99.146 134.353 C 98.676 134.222,97.932 133.873,97.493 133.577 L 96.694 133.039 96.634 113.176 L 96.573 93.313 97.282 92.644 C 97.672 92.276,98.337 91.849,98.760 91.696 C 99.982 91.252,388.742 91.268,390.628 91.712 M30.890 173.883 C 30.283 174.047,29.395 174.479,28.917 174.843 C 28.317 175.301,27.527 175.597,26.362 175.801 C 23.231 176.349,22.639 176.593,21.443 177.827 C 20.826 178.464,20.157 178.985,19.956 178.985 C 19.424 178.985,15.378 183.105,14.985 184.048 C 14.801 184.488,14.327 185.078,13.933 185.359 C 12.941 186.066,12.614 186.803,12.040 189.636 C 11.766 190.985,11.230 192.718,10.848 193.485 C 9.736 195.719,9.863 198.506,11.141 199.911 C 11.459 200.261,11.728 201.227,12.030 203.099 C 12.694 207.226,12.794 207.470,14.766 209.806 C 17.321 212.832,17.280 212.787,18.397 213.695 C 18.956 214.150,20.026 215.068,20.775 215.736 C 22.238 217.041,22.223 217.034,24.622 217.578 C 25.851 217.857,26.408 218.128,27.026 218.746 C 29.090 220.810,38.759 220.763,41.144 218.678 C 41.663 218.224,42.538 217.848,43.841 217.520 C 45.881 217.006,47.226 216.426,47.226 216.060 C 47.226 215.730,48.471 214.640,48.848 214.640 C 49.728 214.640,53.837 209.720,53.837 208.666 C 53.837 208.486,54.248 207.920,54.750 207.408 C 58.048 204.043,57.918 189.992,54.553 186.159 C 54.184 185.739,53.807 185.052,53.715 184.632 C 53.611 184.161,52.992 183.294,52.098 182.366 C 51.301 181.539,50.312 180.492,49.900 180.039 C 49.481 179.579,48.822 179.150,48.406 179.067 C 47.886 178.963,47.490 178.647,47.091 178.014 C 46.244 176.673,45.085 176.226,41.322 175.791 C 40.423 175.687,39.705 175.417,38.986 174.913 C 37.189 173.650,33.497 173.181,30.890 173.883 M98.819 173.886 C 97.716 174.374,95.247 177.099,94.934 178.173 C 94.357 180.151,94.709 215.494,95.319 216.814 C 95.936 218.150,97.236 219.504,98.347 219.968 C 99.398 220.407,388.743 220.488,390.786 220.050 C 392.308 219.723,393.230 218.947,393.779 217.529 C 394.398 215.931,394.581 179.250,393.980 177.184 C 393.459 175.391,392.227 174.164,390.602 173.819 C 388.607 173.396,99.777 173.462,98.819 173.886 M39.045 176.172 C 43.904 177.075,44.830 177.382,45.827 178.424 C 46.271 178.889,47.198 179.590,47.886 179.982 C 48.738 180.468,49.387 181.082,49.922 181.906 C 50.353 182.572,51.049 183.436,51.467 183.825 C 52.278 184.580,53.112 186.060,53.597 187.603 C 53.760 188.123,54.201 189.095,54.577 189.763 C 56.080 192.435,56.581 196.700,55.864 200.720 C 55.477 202.886,52.632 208.969,51.368 210.331 C 50.916 210.818,50.225 211.665,49.833 212.213 C 49.442 212.762,48.684 213.433,48.150 213.706 C 47.616 213.978,46.738 214.604,46.198 215.095 C 44.879 216.300,44.692 216.382,41.059 217.374 C 39.321 217.849,37.155 218.444,36.246 218.696 L 34.593 219.155 31.877 218.526 C 24.711 216.869,23.208 216.368,22.352 215.350 C 22.037 214.976,21.237 214.336,20.574 213.928 C 19.911 213.520,19.134 212.849,18.848 212.437 C 18.561 212.025,17.766 211.157,17.080 210.508 C 16.393 209.858,15.579 208.849,15.269 208.264 C 14.960 207.680,14.423 206.708,14.076 206.104 C 11.885 202.289,11.615 195.836,13.340 188.502 C 13.407 188.217,13.889 187.490,14.411 186.886 C 14.933 186.283,15.569 185.380,15.825 184.880 C 16.080 184.380,16.774 183.566,17.368 183.071 C 17.962 182.577,18.658 181.833,18.916 181.419 C 19.174 181.004,19.937 180.326,20.613 179.913 C 21.289 179.499,22.283 178.756,22.823 178.262 C 23.394 177.739,24.295 177.218,24.977 177.015 C 27.702 176.206,33.734 175.175,34.677 175.357 C 34.983 175.416,36.949 175.783,39.045 176.172 M390.528 175.784 C 391.460 176.121,391.980 176.493,392.476 177.177 L 393.152 178.111 393.152 196.757 L 393.152 215.402 392.524 216.557 C 392.019 217.485,391.637 217.838,390.576 218.360 L 389.256 219.008 244.864 219.073 C 165.449 219.108,100.235 219.080,99.945 219.010 C 99.110 218.809,97.778 217.499,97.151 216.263 L 96.576 215.128 96.580 196.879 L 96.584 178.630 97.116 177.686 C 97.409 177.166,98.164 176.396,98.793 175.973 L 99.938 175.205 244.597 175.265 C 387.238 175.324,389.274 175.331,390.528 175.784 " stroke="none" fill="#340c0c" fill-rule="evenodd"></path><path id="path3" d="M0.000 118.064 L 0.000 236.128 200.000 236.128 L 400.000 236.128 400.000 118.064 L 400.000 0.000 200.000 0.000 L 0.000 0.000 0.000 118.064 M40.828 6.149 C 41.466 6.335,42.217 6.811,42.769 7.379 C 43.440 8.071,44.014 8.394,45.033 8.655 C 47.463 9.278,53.837 15.102,53.837 16.699 C 53.837 16.823,54.199 17.393,54.642 17.966 C 55.084 18.539,55.604 19.540,55.797 20.189 C 55.990 20.838,56.372 21.931,56.645 22.618 C 57.204 24.019,57.385 31.162,56.904 32.823 C 56.773 33.277,56.569 34.242,56.451 34.969 C 56.059 37.383,55.718 38.245,54.710 39.382 C 54.161 39.999,53.562 40.960,53.379 41.517 C 53.179 42.121,52.723 42.787,52.249 43.166 C 51.200 44.004,50.527 44.676,49.894 45.518 C 49.558 45.965,48.854 46.399,47.903 46.746 C 46.910 47.108,46.171 47.573,45.627 48.178 C 43.455 50.598,36.004 51.307,25.998 50.046 C 23.952 49.788,22.998 49.300,22.226 48.117 C 21.781 47.434,21.431 47.202,20.517 46.983 C 19.829 46.818,19.154 46.464,18.834 46.101 C 18.540 45.767,17.695 44.894,16.957 44.161 C 15.932 43.143,15.547 42.563,15.332 41.711 C 15.130 40.907,14.878 40.504,14.432 40.272 C 13.003 39.528,12.283 38.057,12.280 35.874 C 12.278 34.395,11.687 32.786,10.851 31.985 C 9.768 30.947,9.947 25.894,11.125 24.253 C 11.385 23.891,11.807 22.722,12.062 21.656 C 12.923 18.067,12.994 17.900,14.161 16.726 C 14.783 16.101,15.469 15.190,15.686 14.702 C 16.345 13.214,16.413 13.130,17.578 12.358 C 18.198 11.946,18.889 11.309,19.114 10.941 C 19.669 10.031,19.922 9.854,21.922 8.983 C 22.876 8.568,24.120 7.874,24.686 7.442 C 26.649 5.943,28.276 5.679,34.947 5.776 C 37.976 5.820,40.177 5.960,40.828 6.149 M392.646 6.122 C 394.438 7.036,394.354 5.887,394.280 28.377 C 394.207 50.729,394.330 49.165,392.581 50.022 C 391.099 50.748,386.071 50.771,243.447 50.711 L 98.111 50.649 96.968 50.066 C 96.339 49.744,95.596 49.160,95.315 48.767 L 94.805 48.052 94.742 29.768 C 94.687 14.032,94.728 11.314,95.035 10.258 C 95.453 8.820,97.290 6.455,98.347 5.994 C 99.693 5.408,391.493 5.534,392.646 6.122 M42.371 91.146 C 42.884 91.302,43.893 91.840,44.615 92.343 C 45.336 92.846,46.684 93.634,47.609 94.094 C 49.050 94.812,49.373 95.091,49.862 96.040 C 50.288 96.869,50.711 97.292,51.541 97.719 C 52.472 98.198,52.762 98.523,53.336 99.735 C 53.713 100.530,54.397 101.738,54.856 102.419 C 55.355 103.158,55.803 104.204,55.969 105.016 C 56.121 105.764,56.447 106.983,56.694 107.726 C 57.433 109.948,57.342 116.726,56.548 118.654 C 56.227 119.433,55.964 120.291,55.963 120.559 C 55.961 121.538,55.230 123.479,54.707 123.895 C 54.412 124.129,53.813 124.959,53.377 125.738 C 52.479 127.344,51.763 128.217,51.344 128.217 C 51.060 128.217,49.847 129.512,49.051 130.664 C 48.580 131.347,47.205 132.019,45.387 132.456 C 44.459 132.678,44.058 132.915,43.763 133.413 C 42.766 135.102,38.831 135.744,31.369 135.435 C 27.238 135.264,25.998 134.940,24.696 133.688 C 23.981 133.000,23.228 132.595,21.789 132.124 C 19.863 131.494,18.654 130.574,18.654 129.739 C 18.654 129.556,18.149 129.166,17.532 128.871 C 16.409 128.334,16.368 128.280,15.132 125.678 C 14.931 125.255,14.584 124.851,14.360 124.779 C 13.518 124.512,12.816 123.322,12.533 121.682 C 12.107 119.216,11.560 117.280,11.163 116.832 C 10.016 115.539,9.757 109.942,10.803 109.053 C 11.709 108.282,12.044 107.414,12.392 104.936 C 12.744 102.433,13.286 101.140,14.206 100.613 C 14.579 100.399,14.926 99.952,15.008 99.581 C 15.216 98.637,16.150 97.629,17.209 97.205 C 17.860 96.945,18.200 96.629,18.378 96.117 C 18.710 95.165,19.714 94.259,20.631 94.085 C 21.519 93.917,21.944 93.608,22.514 92.717 C 23.126 91.761,24.609 91.194,27.173 90.934 C 30.188 90.628,41.170 90.781,42.371 91.146 M392.631 91.216 C 394.437 92.202,394.331 90.932,394.332 111.586 C 394.333 135.373,394.494 134.531,389.816 135.290 C 387.693 135.634,100.832 135.630,98.709 135.286 C 96.738 134.966,95.685 134.455,95.132 133.549 C 94.485 132.488,94.435 93.888,95.079 92.798 C 95.533 92.030,96.821 91.245,98.138 90.935 C 100.155 90.460,391.756 90.738,392.631 91.216 M36.625 173.873 C 37.353 174.044,38.416 174.512,38.986 174.913 C 39.705 175.417,40.423 175.687,41.322 175.791 C 45.085 176.226,46.244 176.673,47.091 178.014 C 47.490 178.647,47.886 178.963,48.406 179.067 C 48.822 179.150,49.481 179.579,49.900 180.039 C 50.312 180.492,51.301 181.539,52.098 182.366 C 52.992 183.294,53.611 184.161,53.715 184.632 C 53.807 185.052,54.184 185.739,54.553 186.159 C 57.918 189.992,58.048 204.043,54.750 207.408 C 54.248 207.920,53.837 208.486,53.837 208.666 C 53.837 209.720,49.728 214.640,48.848 214.640 C 48.471 214.640,47.226 215.730,47.226 216.060 C 47.226 216.426,45.881 217.006,43.841 217.520 C 42.538 217.848,41.663 218.224,41.144 218.678 C 38.759 220.763,29.090 220.810,27.026 218.746 C 26.408 218.128,25.851 217.857,24.622 217.578 C 22.223 217.034,22.238 217.041,20.775 215.736 C 20.026 215.068,18.956 214.150,18.397 213.695 C 17.280 212.787,17.321 212.832,14.766 209.806 C 12.794 207.470,12.694 207.226,12.030 203.099 C 11.728 201.227,11.459 200.261,11.141 199.911 C 9.863 198.506,9.736 195.719,10.848 193.485 C 11.230 192.718,11.766 190.985,12.040 189.636 C 12.614 186.803,12.941 186.066,13.933 185.359 C 14.327 185.078,14.801 184.488,14.985 184.048 C 15.378 183.105,19.424 178.985,19.956 178.985 C 20.157 178.985,20.826 178.464,21.443 177.827 C 22.639 176.593,23.231 176.349,26.362 175.801 C 27.527 175.597,28.317 175.301,28.917 174.843 C 30.518 173.622,33.803 173.209,36.625 173.873 M390.602 173.819 C 392.227 174.164,393.459 175.391,393.980 177.184 C 394.581 179.250,394.398 215.931,393.779 217.529 C 393.230 218.947,392.308 219.723,390.786 220.050 C 388.743 220.488,99.398 220.407,98.347 219.968 C 97.236 219.504,95.936 218.150,95.319 216.814 C 94.709 215.494,94.357 180.151,94.934 178.173 C 95.247 177.099,97.716 174.374,98.819 173.886 C 99.777 173.462,388.607 173.396,390.602 173.819 " stroke="none" fill="#040404" fill-rule="evenodd"></path><path id="path4" d="M99.225 7.856 C 98.948 8.151,98.450 9.111,98.119 9.990 L 97.518 11.589 97.578 29.702 L 97.639 47.816 98.788 48.584 L 99.938 49.352 244.597 49.292 L 389.256 49.233 390.673 48.524 L 392.090 47.816 392.161 29.870 C 392.200 20.000,392.165 11.054,392.082 9.991 L 391.932 8.057 390.311 7.689 C 388.852 7.357,374.293 7.320,244.209 7.320 L 99.728 7.320 99.225 7.856 M31.405 7.788 C 29.892 8.084,24.136 10.067,23.402 10.543 C 18.964 13.430,15.475 17.939,13.654 23.140 C 12.848 25.444,12.774 30.388,13.512 32.718 C 13.838 33.749,14.290 35.230,14.516 36.009 C 14.741 36.789,15.163 37.745,15.452 38.135 C 15.741 38.524,16.334 39.518,16.771 40.344 C 17.208 41.169,17.822 42.012,18.134 42.217 C 18.447 42.422,19.107 43.136,19.600 43.804 C 20.265 44.704,20.886 45.211,21.996 45.759 C 22.820 46.166,24.079 46.872,24.793 47.327 C 27.649 49.147,33.307 49.667,40.214 48.746 C 40.993 48.642,41.659 48.347,42.339 47.805 C 42.884 47.370,44.275 46.504,45.431 45.880 C 46.587 45.257,47.823 44.427,48.177 44.038 C 52.184 39.638,52.495 39.106,54.601 33.058 C 55.680 29.957,55.447 25.577,54.062 22.930 C 53.545 21.942,52.903 20.371,52.635 19.439 C 51.608 15.860,46.472 10.916,42.385 9.571 C 41.086 9.144,39.509 8.560,38.881 8.273 C 37.589 7.683,33.342 7.408,31.405 7.788 M389.379 10.318 L 390.083 11.427 390.083 29.539 L 390.083 47.652 389.339 47.911 C 388.217 48.302,99.848 48.278,99.457 47.887 C 98.960 47.390,99.058 11.534,99.560 10.220 L 99.946 9.209 244.311 9.209 L 388.676 9.209 389.379 10.318 M40.378 10.521 C 42.001 10.843,43.567 11.159,43.858 11.224 C 44.173 11.294,44.581 11.724,44.870 12.291 C 45.242 13.018,45.663 13.390,46.674 13.881 C 47.867 14.460,48.038 14.641,48.453 15.762 C 48.798 16.693,49.156 17.170,49.898 17.682 C 50.947 18.406,50.839 18.153,52.073 22.786 C 53.322 27.477,53.352 30.004,52.209 34.238 C 51.806 35.731,51.476 37.156,51.476 37.404 C 51.476 37.652,51.010 38.290,50.440 38.821 C 49.871 39.353,49.244 40.106,49.047 40.496 C 48.650 41.283,47.085 42.975,46.755 42.975 C 46.639 42.975,46.358 43.290,46.131 43.674 C 45.735 44.344,44.389 45.092,42.912 45.462 C 42.552 45.552,41.893 46.052,41.447 46.574 C 40.456 47.732,39.892 47.867,35.140 48.084 C 30.898 48.278,28.261 47.928,27.718 47.099 C 27.315 46.485,26.116 45.859,23.495 44.894 C 21.755 44.254,21.550 44.108,20.897 43.039 C 20.508 42.400,19.730 41.414,19.170 40.847 C 18.034 39.699,17.728 39.086,16.750 36.003 C 16.378 34.831,15.724 33.345,15.297 32.701 L 14.522 31.530 14.522 27.829 L 14.522 24.128 15.138 23.643 C 15.852 23.081,16.672 21.314,17.227 19.138 C 17.569 17.797,17.738 17.528,18.630 16.894 C 19.188 16.499,19.931 15.750,20.282 15.230 C 20.671 14.652,21.338 14.086,21.999 13.771 C 22.985 13.302,23.555 12.768,24.203 11.707 C 24.472 11.266,27.186 10.577,30.224 10.177 C 31.328 10.031,32.497 9.869,32.822 9.815 C 33.996 9.622,37.488 9.948,40.378 10.521 M28.808 92.561 C 25.262 93.436,22.028 95.310,19.208 98.123 C 16.795 100.529,16.273 101.408,14.328 106.342 L 13.105 109.445 13.138 112.987 C 13.168 116.193,13.232 116.697,13.809 118.300 C 14.928 121.405,17.497 126.314,18.292 126.865 C 18.686 127.138,19.714 128.019,20.577 128.824 C 21.881 130.040,22.527 130.434,24.412 131.164 C 25.659 131.648,26.933 132.243,27.244 132.487 C 29.537 134.291,37.545 134.095,41.677 132.134 C 42.586 131.702,44.054 131.006,44.941 130.586 C 48.218 129.034,52.353 124.241,52.888 121.373 C 53.198 119.717,53.447 119.138,54.562 117.485 L 55.288 116.410 55.212 112.920 L 55.136 109.430 54.270 107.978 C 53.748 107.103,53.246 105.816,53.007 104.739 C 52.284 101.491,47.933 96.458,44.505 94.904 C 43.621 94.503,42.517 93.870,42.051 93.497 C 40.264 92.064,32.922 91.545,28.808 92.561 M99.055 92.365 C 98.796 92.509,98.344 92.843,98.052 93.108 L 97.521 93.589 97.521 111.366 C 97.521 131.377,97.584 132.461,98.792 133.198 C 99.788 133.805,388.405 133.918,389.577 133.311 C 389.936 133.126,390.648 132.355,391.159 131.599 L 392.090 130.224 392.090 111.690 L 392.090 93.157 390.791 92.630 L 389.492 92.104 244.510 92.104 C 139.021 92.104,99.399 92.175,99.055 92.365 M37.933 93.167 C 38.341 93.231,39.085 93.609,39.586 94.008 C 40.793 94.971,41.965 95.555,43.104 95.762 C 44.419 96.000,45.322 96.508,45.564 97.145 C 45.678 97.445,46.110 97.944,46.524 98.255 C 47.761 99.183,48.736 100.202,49.167 101.017 C 49.390 101.439,49.893 101.968,50.284 102.191 C 51.169 102.696,51.197 102.767,51.712 105.722 C 51.943 107.052,52.357 108.569,52.631 109.095 C 53.364 110.501,53.372 115.843,52.644 117.022 C 52.377 117.453,51.905 119.007,51.595 120.474 C 51.217 122.262,50.902 123.218,50.638 123.377 C 49.592 124.004,49.051 124.581,48.513 125.641 C 48.078 126.501,47.704 126.890,47.054 127.162 C 46.008 127.599,45.415 128.099,44.845 129.023 C 44.501 129.581,44.098 129.795,42.695 130.163 C 35.431 132.069,32.744 132.172,27.509 130.744 C 23.657 129.694,23.744 129.731,23.351 128.992 C 23.170 128.653,22.398 127.920,21.634 127.364 C 20.870 126.808,20.055 126.039,19.822 125.656 C 19.589 125.273,19.081 124.772,18.692 124.542 C 17.862 124.052,17.578 123.496,16.991 121.206 C 16.472 119.184,15.994 118.202,15.148 117.419 C 14.533 116.849,14.521 116.779,14.446 113.346 L 14.371 109.854 15.063 109.059 C 16.048 107.928,16.469 107.009,16.978 104.881 C 17.608 102.241,17.741 102.041,21.133 98.600 C 23.460 96.240,23.990 95.896,25.917 95.492 C 27.402 95.182,29.516 94.163,29.516 93.758 C 29.516 93.084,34.939 92.704,37.933 93.167 M389.227 93.155 L 390.083 93.513 390.083 111.494 L 390.083 129.475 389.350 130.617 L 388.617 131.759 244.275 131.759 L 99.933 131.759 99.553 130.810 C 98.946 129.292,98.978 93.589,99.587 93.127 C 100.253 92.621,388.016 92.649,389.227 93.155 M29.787 176.775 C 26.530 177.217,24.724 177.853,23.394 179.025 C 22.800 179.549,21.942 180.173,21.488 180.412 C 20.531 180.915,17.199 184.477,16.211 186.054 C 15.840 186.647,15.283 187.401,14.973 187.732 C 14.297 188.451,12.987 194.430,12.987 196.790 C 12.989 203.247,16.712 210.354,21.901 213.801 C 22.453 214.168,22.904 214.555,22.904 214.662 C 22.904 215.498,26.192 216.519,31.228 217.247 L 34.711 217.750 37.855 217.141 C 42.255 216.288,44.286 215.638,45.180 214.796 C 45.591 214.410,46.458 213.750,47.107 213.330 C 48.381 212.507,49.126 211.774,49.577 210.900 C 49.734 210.596,50.222 209.949,50.662 209.462 C 54.151 205.600,56.100 197.375,54.554 193.034 C 54.184 191.995,53.615 190.390,53.290 189.467 C 52.471 187.142,51.690 185.687,50.492 184.251 C 49.929 183.576,49.254 182.673,48.992 182.244 C 48.729 181.815,47.848 181.028,47.034 180.495 C 46.219 179.962,45.262 179.247,44.906 178.906 C 43.008 177.088,35.391 176.014,29.787 176.775 M99.094 176.952 C 97.406 178.333,97.524 176.846,97.523 196.812 C 97.522 216.839,97.394 215.221,99.124 217.060 L 99.734 217.710 244.259 217.707 L 388.784 217.705 389.999 217.008 C 392.429 215.614,392.208 217.643,392.208 196.780 C 392.208 175.933,392.449 178.098,390.003 176.960 L 388.784 176.392 244.274 176.398 L 99.764 176.404 99.094 176.952 M37.898 178.043 C 41.445 178.368,41.587 178.410,42.688 179.436 C 43.221 179.933,44.508 180.752,45.548 181.256 C 47.212 182.062,47.486 182.286,47.824 183.117 C 48.381 184.486,49.708 186.411,50.413 186.873 C 51.214 187.398,51.606 188.374,51.938 190.673 C 52.088 191.712,52.429 193.234,52.695 194.055 C 53.644 196.983,52.042 205.893,50.345 207.129 C 49.582 207.684,48.565 209.223,48.148 210.453 C 47.779 211.544,47.648 211.686,46.767 211.946 C 45.702 212.260,42.739 214.093,42.739 214.437 C 42.739 216.377,25.466 216.145,24.450 214.192 C 23.986 213.300,23.169 212.648,21.960 212.202 C 21.049 211.865,20.813 211.633,20.307 210.568 C 19.880 209.670,19.462 209.186,18.797 208.818 C 17.932 208.340,17.825 208.154,17.026 205.724 C 16.558 204.303,15.873 202.706,15.505 202.176 C 14.212 200.319,14.041 195.209,15.202 193.145 C 15.533 192.556,15.975 191.334,16.184 190.429 C 16.660 188.368,18.113 185.376,18.761 185.123 C 19.545 184.816,20.318 183.957,20.779 182.882 C 21.144 182.030,21.377 181.820,22.308 181.503 C 23.514 181.092,25.610 179.658,25.825 179.097 C 26.237 178.025,32.115 177.512,37.898 178.043 M389.315 178.274 L 390.083 178.742 390.083 196.800 L 390.083 214.859 389.201 215.458 L 388.320 216.057 244.198 216.057 L 100.076 216.057 99.632 215.525 C 98.986 214.750,98.920 178.947,99.564 178.236 C 100.205 177.528,388.154 177.566,389.315 178.274 " stroke="none" fill="#802814" fill-rule="evenodd"></path></g></svg>