<svg width="401" height="200" viewBox="0 0 401 200" fill="none" xmlns="http://www.w3.org/2000/svg">
<g clip-path="url(#clip0_28_817)">
<path d="M86.1839 0C74.8661 -1.14001e-05 63.659 2.22434 53.2027 6.54604C42.7464 10.8677 33.2456 17.2022 25.2427 25.1877C17.2397 33.1731 10.8915 42.6533 6.56033 53.0868C2.22919 63.5203 -1.13183e-05 74.7029 0 85.9961C-1.10551e-05 97.2893 2.22919 108.472 6.56034 118.905C10.8915 129.339 17.2397 138.819 25.2427 146.805C33.2456 154.79 42.7464 161.124 53.2027 165.446C63.659 169.768 74.8661 171.992 86.1839 171.992V122.854C76.3872 122.854 66.9919 118.971 60.0646 112.059C53.1373 105.146 49.2456 95.7714 49.2456 85.9961C49.2456 76.2208 53.1373 66.8459 60.0646 59.9337C66.9919 53.0215 76.3872 49.1383 86.1839 49.1383C95.9805 49.1383 105.376 53.0215 112.303 59.9337C119.23 66.8459 123.122 76.2208 123.122 85.9961H172.368C172.368 74.7029 170.139 63.5203 165.807 53.0868C161.476 42.6533 155.128 33.1731 147.125 25.1877C139.122 17.2022 129.621 10.8677 119.165 6.54604C108.709 2.22434 97.5017 -1.1138e-05 86.1839 0Z" fill="#C23B22"/>
<path d="M123.122 95.7171V123.289H95.49V172.428H123.122V200H172.368V172.428H200V123.289H172.368V95.7171H123.122Z" fill="#F2F0EF"/>
</g>
<path d="M236.914 152.098V123.909H250.529V173H237.457V164.083H236.946C235.838 166.96 233.995 169.271 231.417 171.018C228.86 172.766 225.739 173.639 222.053 173.639C218.771 173.639 215.884 172.893 213.391 171.402C210.898 169.911 208.949 167.79 207.543 165.042C206.158 162.293 205.455 159.001 205.433 155.166V123.909H219.048V152.737C219.07 155.635 219.847 157.925 221.381 159.609C222.915 161.292 224.972 162.134 227.55 162.134C229.19 162.134 230.724 161.761 232.152 161.015C233.58 160.248 234.73 159.119 235.604 157.627C236.499 156.136 236.935 154.293 236.914 152.098ZM261.42 173V123.909H274.619V132.474H275.131C276.025 129.428 277.528 127.126 279.637 125.571C281.746 123.994 284.175 123.206 286.924 123.206C287.606 123.206 288.341 123.249 289.129 123.334C289.917 123.419 290.61 123.536 291.207 123.685V135.766C290.567 135.575 289.683 135.404 288.554 135.255C287.425 135.106 286.391 135.031 285.454 135.031C283.451 135.031 281.661 135.468 280.084 136.342C278.529 137.194 277.293 138.387 276.377 139.921C275.482 141.455 275.035 143.224 275.035 145.227V173H261.42ZM310.838 173.927C307.706 173.927 304.915 173.384 302.464 172.297C300.014 171.189 298.075 169.559 296.648 167.407C295.241 165.234 294.538 162.528 294.538 159.289C294.538 156.562 295.039 154.271 296.04 152.418C297.042 150.564 298.406 149.072 300.131 147.943C301.857 146.814 303.817 145.962 306.012 145.386C308.228 144.811 310.55 144.406 312.979 144.172C315.835 143.874 318.136 143.597 319.883 143.341C321.63 143.064 322.898 142.659 323.686 142.126C324.474 141.594 324.869 140.805 324.869 139.761V139.57C324.869 137.545 324.229 135.979 322.951 134.871C321.694 133.763 319.904 133.21 317.582 133.21C315.131 133.21 313.182 133.753 311.733 134.839C310.284 135.905 309.325 137.247 308.857 138.866L296.264 137.844C296.903 134.861 298.161 132.283 300.036 130.109C301.911 127.915 304.329 126.232 307.29 125.06C310.273 123.866 313.725 123.27 317.646 123.27C320.373 123.27 322.983 123.589 325.476 124.229C327.99 124.868 330.217 125.859 332.156 127.201C334.116 128.543 335.661 130.269 336.79 132.379C337.919 134.467 338.484 136.97 338.484 139.889V173H325.572V166.192H325.188C324.4 167.727 323.345 169.08 322.024 170.251C320.703 171.402 319.116 172.308 317.262 172.968C315.408 173.607 313.267 173.927 310.838 173.927ZM314.737 164.531C316.74 164.531 318.509 164.136 320.043 163.348C321.577 162.538 322.781 161.452 323.654 160.088C324.528 158.724 324.964 157.18 324.964 155.454V150.244C324.538 150.521 323.952 150.777 323.207 151.011C322.482 151.224 321.662 151.427 320.746 151.619C319.83 151.789 318.913 151.949 317.997 152.098C317.081 152.226 316.25 152.343 315.504 152.45C313.906 152.684 312.511 153.057 311.317 153.568C310.124 154.08 309.197 154.772 308.537 155.646C307.876 156.498 307.546 157.563 307.546 158.842C307.546 160.695 308.217 162.112 309.56 163.092C310.923 164.051 312.649 164.531 314.737 164.531Z" fill="#F2F0EF"/>
<defs>
<clipPath id="clip0_28_817">
<rect width="200" height="200" fill="white"/>
</clipPath>
</defs>
</svg>
